<svg width="110" height="110" viewBox="0 0 110 110" fill="none" xmlns="http://www.w3.org/2000/svg">
<circle cx="55" cy="55" r="50" fill="#263238" stroke="#EDEFEF" stroke-width="10"/>
<path fill-rule="evenodd" clip-rule="evenodd" d="M52.4722 29.0486C49.1191 30.6391 45.5422 34.6831 43.2058 39.5243C41.3842 43.2994 41.0227 45.3232 41.7315 47.7792C42.0395 48.8466 42.5061 50.138 42.7685 50.6489L43.2455 51.5779L41.1406 52.5405C38.9864 53.5253 37.0894 55.3178 36.4683 56.956C36.2822 57.4469 35.5952 60.046 34.9419 62.7316C34.0806 66.2726 33.8085 68.0153 33.9526 69.0733C34.264 71.3614 35.6728 73.8119 37.3699 75.0167L38.8674 76.0797V78.2139V80.3477H37.8493C36.7018 80.3477 36.2143 81.0965 36.8556 81.8746C37.213 82.3084 39.7549 82.3777 55.3275 82.3777C70.9001 82.3777 73.442 82.3084 73.7995 81.8746C74.4407 81.0965 73.9533 80.3477 72.8058 80.3477H71.7876V78.1936C71.7876 76.056 71.798 76.0323 73.1283 75.1456C74.8784 73.9794 76.0716 72.1196 76.553 69.8088C76.9611 67.8488 76.6662 66.055 74.7686 58.9565C73.8828 55.643 72.3604 53.7845 69.4567 52.4721L67.4223 51.5526L67.893 50.6364C68.1516 50.1322 68.6155 48.8466 68.9236 47.7792C69.6324 45.3232 69.2709 43.2994 67.4492 39.5243C64.3829 33.1701 59.0942 28.2518 55.3275 28.2518C54.6809 28.2518 53.396 28.6101 52.4722 29.0486ZM62.0614 43.6404C64.4676 44.2649 66.247 45.2322 66.7572 46.1921C67.1509 46.9333 66.2446 49.6542 65.1277 51.0843C64.7467 51.5722 64.5136 52.1774 64.6093 52.4295C64.7054 52.6816 65.9809 53.3734 67.4435 53.9672C70.4154 55.174 71.8908 56.547 72.4269 58.6057C74.652 67.1482 74.8862 69.0753 73.9305 70.976C73.2936 72.2431 72.4736 73.2428 72.0715 73.2428C71.9153 73.2428 71.7876 70.2638 71.7876 66.6231C71.7876 62.7299 71.6452 59.7354 71.4416 59.3527C70.5823 57.7355 70.0452 57.6797 55.3275 57.6797C40.6099 57.6797 40.0727 57.7355 39.2134 59.3527C39.0099 59.7354 38.8674 62.7299 38.8674 66.6231C38.8674 70.2638 38.7398 73.2428 38.5836 73.2428C38.1815 73.2428 37.3615 72.2431 36.7246 70.976C35.7689 69.0753 36.003 67.1482 38.2282 58.6057C38.7643 56.547 40.2397 55.174 43.2116 53.9672C44.6742 53.3734 45.9496 52.6816 46.0457 52.4295C46.1415 52.1774 45.9083 51.5722 45.5274 51.0843C44.4105 49.6542 43.5041 46.9333 43.8978 46.1921C44.302 45.4318 45.9846 44.3705 47.6172 43.8458C51.143 42.7124 58.1073 42.6136 62.0614 43.6404ZM49.113 45.4904C48.374 45.6507 47.3373 45.9491 46.8093 46.1538C45.9234 46.4972 45.867 46.6224 46.081 47.7704C46.4236 49.6109 47.7082 51.9311 49.1681 53.3474C52.7839 56.8552 57.8711 56.8552 61.487 53.3474C63.0557 51.8256 64.3947 49.2857 64.4928 47.6459C64.5603 46.5162 64.4709 46.3951 63.2217 45.9177C61.661 45.3212 51.3331 45.0083 49.113 45.4904Z" fill="white"/>
</svg>
