<svg width="239" height="150" viewBox="0 0 239 150" fill="none" xmlns="http://www.w3.org/2000/svg">
<path d="M166.818 11.3159H37.05L31.3921 6.10352e-05H166.818C193.63 6.10352e-05 215.366 21.7361 215.366 48.5489V70.2681L204.051 66.9828V48.5489C204.051 27.9857 187.381 11.3159 166.818 11.3159Z" fill="white" fill-opacity="0.35"/>
<path fill-rule="evenodd" clip-rule="evenodd" d="M160.551 30.1922C159.542 30.6501 158.498 31.923 158.314 32.9191C158.233 33.3613 158.2 36.7749 158.242 40.5049C158.314 46.9012 158.347 47.3262 158.832 47.9755C159.81 49.2848 160.607 49.693 162.184 49.693C163.762 49.693 164.559 49.2843 165.537 47.975C166.029 47.315 166.051 46.9711 166.051 39.8364C166.051 32.7018 166.029 32.3579 165.537 31.6979C165.254 31.3189 164.729 30.7896 164.37 30.5218C163.545 29.9052 161.56 29.7341 160.551 30.1922ZM136.604 38.1913C134.937 38.9177 134.006 40.8161 134.361 42.7685C134.505 43.5637 135.268 44.4413 139.44 48.615C144.728 53.9052 145.013 54.0926 147.143 53.6926C148.371 53.4622 149.863 51.9695 150.093 50.7413C150.488 48.6355 150.275 48.3034 145.264 43.2398C142.703 40.6514 140.246 38.3774 139.805 38.1868C138.807 37.7561 137.599 37.7576 136.604 38.1913ZM184.51 38.197C184.098 38.3824 181.666 40.6519 179.105 43.2401C174.094 48.3034 173.881 48.6355 174.276 50.7413C174.506 51.9695 175.998 53.4622 177.226 53.6926C179.356 54.0926 179.641 53.9052 184.929 48.615C189.101 44.4413 189.864 43.5637 190.008 42.7685C190.611 39.4512 187.488 36.8548 184.51 38.197ZM128.621 62.1408C126.968 62.8737 126.02 64.7821 126.373 66.6666C126.592 67.8311 127.836 69.2103 128.969 69.5439C129.554 69.7164 132.354 69.7845 136.786 69.7341C143.304 69.6602 143.728 69.627 144.378 69.1412C145.687 68.163 146.095 67.3658 146.095 65.788C146.095 64.2102 145.687 63.4129 144.378 62.4347C143.725 61.9466 143.324 61.9172 136.536 61.8618C130.967 61.8166 129.214 61.8783 128.621 62.1408ZM160.563 62.1478C159.182 62.7616 158.197 64.2546 158.19 65.7418C158.189 66.1104 163.655 84.659 170.337 106.961C182.193 146.535 182.507 147.532 183.386 148.425C184.774 149.837 187.002 150.018 188.498 148.841C188.867 148.55 192.191 143.781 195.884 138.242C199.577 132.703 202.68 128.171 202.78 128.171C202.88 128.171 207.734 132.936 213.567 138.759C225.051 150.224 224.686 149.932 226.978 149.518C227.795 149.37 229.049 148.213 236.815 140.444C244.581 132.675 245.738 131.421 245.885 130.604C246.299 128.312 246.592 128.676 235.13 117.188C229.309 111.353 224.546 106.497 224.546 106.397C224.546 106.297 229.076 103.193 234.613 99.4987C240.15 95.8046 244.918 92.4798 245.208 92.1105C246.385 90.6138 246.205 88.385 244.793 86.9963C243.9 86.1177 242.903 85.8038 203.343 73.943C181.049 67.2587 162.471 61.7954 162.06 61.8022C161.648 61.8091 160.975 61.9646 160.563 62.1478ZM168.224 72.0547C168.301 72.2551 172.655 86.7321 177.899 104.225C183.143 121.719 187.469 136.071 187.513 136.118C187.557 136.165 190.173 132.335 193.326 127.607C196.479 122.878 199.361 118.771 199.73 118.481C200.553 117.834 201.791 117.58 203.031 117.805C203.851 117.954 205.33 119.337 215.006 128.998L226.046 140.02L231.218 134.846L236.391 129.672L225.372 118.628C215.715 108.949 214.333 107.469 214.184 106.649C213.959 105.409 214.212 104.17 214.859 103.347C215.15 102.977 219.255 100.095 223.982 96.9403C228.709 93.7859 232.538 91.169 232.49 91.1254C232.443 91.0815 218.096 86.7535 200.609 81.5078C183.121 76.2619 168.649 71.907 168.449 71.8299C168.203 71.7358 168.13 71.809 168.224 72.0547ZM144.598 78.1224C144.187 78.3078 141.755 80.5773 139.193 83.1655C134.183 88.2288 133.969 88.5609 134.364 90.6667C134.594 91.8949 136.087 93.3876 137.314 93.618C139.445 94.018 139.729 93.8306 145.018 88.5404C149.19 84.3667 149.952 83.4891 150.097 82.6939C150.699 79.3766 147.577 76.7802 144.598 78.1224Z" fill="white"/>
<rect x="5.65794" y="21.3543" width="186.895" height="78.1161" rx="25.7345" stroke="white" stroke-width="11.3159"/>
</svg>
