<svg width="238" height="217" viewBox="0 0 238 217" fill="none" xmlns="http://www.w3.org/2000/svg">
<path fill-rule="evenodd" clip-rule="evenodd" d="M227.54 34.1337C226.31 35.1376 218.09 49.6987 218.111 50.8341C218.132 51.9654 219.136 53.3578 220.214 53.7503C220.644 53.907 221.494 53.9018 222.103 53.7387C223.121 53.4658 223.592 52.7793 228.017 45.1156C233.168 36.1936 233.233 35.9994 231.649 34.2619C231.255 33.829 230.46 33.4521 229.845 33.4068C228.514 33.3086 228.571 33.2905 227.54 34.1337ZM206.434 44.1319C204.665 47.2168 203.4 49.808 203.413 50.3253C203.438 51.3694 204.626 52.8123 205.658 53.0534C206.04 53.143 206.89 53.0722 207.546 52.8964C208.656 52.599 208.955 52.2035 211.815 47.2499C214.632 42.3701 214.864 41.8268 214.582 40.7752C214.375 40.0011 213.923 39.3816 213.196 38.8739C212.308 38.2543 211.883 38.1832 210.797 38.4742C209.524 38.8152 209.37 39.0159 206.434 44.1319ZM184.681 46.131C184.371 46.3667 183.952 46.8886 183.749 47.2909C183.029 48.7204 178.972 72.2385 179.26 73.3141C179.485 74.1533 180.013 74.637 182.042 75.864L184.546 77.3784L182.141 81.5619L179.735 85.7454L133.915 98.1133L53.2265 119.824L51.9101 120.928C49.9509 122.571 48.352 125.375 47.9088 127.945L47.5264 130.159L60.8234 179.784C76.1279 236.901 74.3283 231.447 78.7004 233.971C82.8792 236.384 116.341 227.243 140.618 220.738L161.426 215.163L162.072 213.883C162.882 212.277 162.585 211.017 161.158 210.021L160.091 209.276L139.62 214.665C116.854 220.658 82.9632 229.838 81.0052 227.971C80.1368 227.144 79.8813 226.246 69.5926 187.852L59.0681 148.579L131.655 129.129C152.401 123.57 169.471 119.079 169.59 119.147C169.708 119.215 169.852 120.282 169.911 121.517C170.077 125.037 171.333 129.516 172.581 131.037C173.872 132.611 176.034 133.694 177.905 133.703C181.052 133.717 187.91 130.919 192.826 127.614C196.836 124.919 202.583 119.28 206.14 114.55C206.995 113.412 207.77 112.461 207.861 112.437C207.951 112.412 212.55 129.284 218.081 149.928C227.906 186.598 228.13 187.49 227.792 188.64C227.032 191.227 227.93 190.887 205.323 197.133C194.133 200.224 184.819 202.929 184.625 203.144C184.079 203.747 183.932 205.644 184.362 206.534C184.575 206.974 185.191 207.572 185.731 207.861L186.712 208.387L207.469 202.825C231.689 196.336 230.378 196.861 232.784 192.685C235.297 188.323 236.179 192.862 223.672 145.791L212.787 104.823L215.206 100.649L217.625 96.4763L220.188 97.8877C222.234 99.0142 222.955 99.245 223.758 99.0301C224.978 98.703 243.367 83.2726 244.18 81.8932C244.839 80.7744 244.514 79.0153 243.476 78.0881C242.918 77.5907 238.998 76.9435 226.103 75.2201L209.451 72.9947L200.242 61.1769C187.478 44.7957 188.419 45.8931 186.963 45.6969C185.577 45.51 185.47 45.5305 184.681 46.131ZM196.096 66.1115C200.24 71.4204 203.672 75.9188 203.723 76.1084C203.774 76.2978 203.349 77.2436 202.779 78.2102L201.743 79.9673L193.7 75.3776L185.658 70.7879L186.436 66.5139C186.865 64.1632 187.45 60.8971 187.737 59.2556C188.024 57.6146 188.327 56.3139 188.41 56.3652C188.493 56.4168 191.952 60.8024 196.096 66.1115ZM228.705 58.3374C226.109 62.8337 225.992 63.1282 226.322 64.3587C226.733 65.892 227.707 66.6937 229.182 66.7125C230.816 66.7336 231.634 65.8344 234.33 61.0554C236.576 57.0725 236.77 56.5716 236.483 55.5001C236.041 53.8502 234.288 52.845 232.629 53.2896C231.525 53.5855 231.227 53.9682 228.705 58.3374ZM201.206 86.947L212.221 93.3103L209.222 98.5401C205.64 104.787 202.38 109.481 198.634 113.79L195.87 116.969L186.794 111.745L177.718 106.521L178.374 104.344C179.798 99.6187 182.422 93.8039 186.022 87.3989C188.096 83.7091 189.883 80.666 189.992 80.6367C190.101 80.6075 195.147 83.447 201.206 86.947ZM221.962 81.0157C228.188 81.8501 233.387 82.5934 233.515 82.6674C233.847 82.8589 234.057 82.6634 228.163 87.6542L222.781 92.2115L214.978 87.6692L207.176 83.1269L208.194 81.3243C208.952 79.9819 209.394 79.5188 209.927 79.5102C210.32 79.5037 215.736 80.1811 221.962 81.0157ZM175.55 93.603C175.589 93.7509 175.167 94.9913 174.61 96.3597C172.998 100.324 171.641 104.762 170.83 108.723L170.077 112.397L131.202 122.814L57.4589 142.573L55.7185 136.078C53.9237 129.38 53.8257 128.419 54.7976 127.047C55.9833 125.372 90.5144 116.13 133.837 104.506C156.74 98.3616 175.51 93.4551 175.55 93.603ZM63.9304 129.221C62.3771 130.312 62.0732 132.523 63.2924 133.861C65.4278 136.204 69.3534 134.288 68.5512 131.294C68.1569 129.823 67.5224 129.167 66.2174 128.881C65.1263 128.642 64.6556 128.712 63.9304 129.221ZM74.0901 126.679C71.7536 128.804 73.7558 132.786 76.7567 131.982C77.3573 131.821 78.0946 131.459 78.3952 131.177C79.1059 130.511 79.3469 128.653 78.8548 127.635C78.0421 125.957 75.4553 125.437 74.0901 126.679ZM183.693 117.181C187.505 119.385 190.402 121.265 190.335 121.49C190.013 122.561 182.326 126.506 179.366 127.119L177.679 127.469L176.918 124.454C175.961 120.664 175.806 113.573 176.675 113.34C176.816 113.302 179.974 115.03 183.693 117.181ZM132.958 136.938C132.087 137.816 132.005 139.387 132.697 141.968L133.359 144.441L131.382 145.394C121.317 150.247 114.999 161.683 116.123 173.013L116.246 174.25L113.401 175.012C110.816 175.705 110.506 175.863 109.998 176.742C109.268 178.006 109.311 179.263 110.121 180.318C111.074 181.561 112.392 181.72 115.299 180.941L117.802 180.27L119.267 183.011C124.178 192.204 134.021 197.904 144.472 197.608L147.582 197.52L148.243 199.99C148.989 202.773 149.781 203.878 151.203 204.115C152.633 204.355 153.564 203.969 154.379 202.803C155.095 201.777 155.098 201.628 154.443 198.834L153.762 195.931L156.515 194.419C161.734 191.554 166.095 186.954 168.483 181.795C170.106 178.291 171.231 172.963 171.077 169.519C171.011 168.064 170.96 166.683 170.962 166.449C170.965 166.152 171.77 165.809 173.639 165.309C176.052 164.662 176.384 164.488 177.064 163.514C178.083 162.054 177.616 160.034 176.051 159.131C175.104 158.584 174.745 158.591 172.11 159.209L169.212 159.888L168.278 157.925C163.745 148.395 152.968 142.052 142.225 142.591L139.506 142.728L138.647 139.884C137.867 137.3 137.693 136.984 136.746 136.438C135.633 135.796 133.859 136.03 132.958 136.938ZM135.764 153.232C136.647 156.048 137.327 156.826 139.061 157.006C140.041 157.108 141.639 156.168 142.069 155.237C142.234 154.879 142.114 153.459 141.783 151.858L141.213 149.097L142.341 148.911C145.408 148.407 151.387 149.876 154.635 151.932C157.318 153.629 159.778 156.038 161.356 158.512C162.155 159.766 162.865 160.998 162.932 161.25C163.03 161.613 162.509 161.854 160.411 162.416C157.977 163.068 157.72 163.208 157.158 164.181C156.246 165.761 156.845 167.74 158.464 168.498C159.526 168.995 159.927 168.983 162.16 168.384C164.99 167.626 164.914 167.568 164.838 170.4C164.68 176.282 161.977 182.182 157.669 186.043C156.214 187.347 152.408 189.671 152.058 189.469C151.93 189.395 151.524 188.209 151.155 186.834C150.528 184.492 150.411 184.291 149.314 183.657C148.076 182.943 146.998 183.035 145.89 183.947C144.817 184.832 144.661 185.948 145.223 188.716L145.752 191.325L143.897 191.356C142.877 191.373 140.675 191.119 139.004 190.79C133.675 189.744 128.358 186.007 125.478 181.285C123.879 178.662 123.849 178.736 126.908 177.78C129.396 177.003 129.63 176.862 130.117 175.85C130.868 174.29 130.382 172.727 128.874 171.857C127.773 171.221 127.55 171.221 125.15 171.864C122.683 172.525 122.59 172.523 122.398 171.808C122.117 170.76 122.386 167.536 122.973 164.901C123.592 162.122 126.624 156.783 128.679 154.854C130.041 153.575 133.75 150.978 134.583 150.719C134.817 150.647 135.228 151.519 135.764 153.232ZM170.86 207.178C170.328 207.96 170.256 208.443 170.527 209.451C171.149 211.774 173.774 212.634 175.485 211.075C176.505 210.145 176.731 209.271 176.333 207.787C175.674 205.33 172.372 204.962 170.86 207.178Z" fill="white"/>
<path d="M178.856 108.97L193.982 100.799L188.282 80.059" stroke="white" stroke-width="6.22491" stroke-linecap="round" stroke-linejoin="round"/>
</svg>
