<svg width="33" height="35" viewBox="0 0 33 35" fill="none" xmlns="http://www.w3.org/2000/svg">
<path fill-rule="evenodd" clip-rule="evenodd" d="M0.971744 0.0482502C0.579198 0.173415 0.24204 0.480432 0.0949548 0.846638L0.0124949 1.05192L0.00244059 14.2328C-0.00470049 23.5996 0.00354195 27.4797 0.0309694 27.6418C0.0802819 27.9333 0.207684 28.185 0.401879 28.3748C0.559622 28.529 1.01249 28.7812 7.01146 32.0565C10.6638 34.0505 12.2309 34.8928 12.4002 34.9529C12.689 35.0553 12.9668 34.9879 13.1197 34.7784C13.1924 34.6788 13.1935 34.6409 13.211 31.7243L13.2288 28.771L18.2382 28.7531L23.2476 28.7353L23.4447 28.6424C23.6901 28.5266 23.8675 28.372 24.0053 28.1538C24.2343 27.7911 24.2246 27.9852 24.2246 23.7636V19.9302H23.1241H22.0235L22.0138 22.9218L22.0042 25.9134L21.9254 26.0614C21.8259 26.2485 21.6012 26.4434 21.423 26.497C21.322 26.5274 20.2093 26.5385 17.2482 26.5385H13.211L13.2105 17.1172C13.2099 6.73301 13.2266 7.49036 12.9884 7.0086C12.8596 6.74791 12.5392 6.37663 12.2936 6.20335C12.2041 6.1402 10.4034 5.21729 8.29216 4.15242L4.45346 2.21638L12.8558 2.2148C18.5396 2.21373 21.3009 2.2252 21.3904 2.2502C21.5882 2.30543 21.8113 2.49485 21.9134 2.69442L22.0042 2.87174L22.0136 6.97163L22.0231 11.0715H23.1245H24.2259L24.2164 6.04386L24.2069 1.0162L24.1253 0.837601C23.9378 0.427209 23.6773 0.184667 23.2961 0.0653603C23.0879 0.000170414 22.7529 -0.00175849 12.0976 0.000563339C3.32947 0.00245652 1.08518 0.012101 0.971744 0.0482502ZM26.4188 11.054L26.4096 13.2683L20.9117 13.2774L15.4138 13.2864V15.501V17.7155H20.9206H26.4274V19.9212V22.1269L29.7137 18.8229C31.5212 17.0056 33 15.5027 33 15.483C33 15.4633 31.5213 13.9604 29.714 12.1434L26.4279 8.83966L26.4188 11.054Z" fill="black"/>
</svg>
