<svg width="405" height="198" viewBox="0 0 405 198" fill="none" xmlns="http://www.w3.org/2000/svg">
<g clip-path="url(#clip0_583_128)">
<path d="M108.3 118.523L82.7216 132.591V128.409L108.3 142.477L100.856 155.404L76.2314 141.146L78.713 139.815L78.9039 167H64.3965L64.5874 139.815L67.0689 141.146L42.6355 155.404L35 142.477L60.7697 128.409V132.591L35 118.523L42.6355 105.406L67.0689 119.854L64.5874 121.375L64.3965 94H78.9039L78.713 121.375L76.2314 119.854L100.856 105.406L108.3 118.523Z" fill="white"/>
<path d="M191.44 118.523L165.862 132.591V128.409L191.44 142.477L183.996 155.404L159.371 141.146L161.853 139.815L162.044 167H147.536L147.727 139.815L150.209 141.146L125.775 155.404L118.14 142.477L143.91 128.409V132.591L118.14 118.523L125.775 105.406L150.209 119.854L147.727 121.375L147.536 94H162.044L161.853 121.375L159.371 119.854L183.996 105.406L191.44 118.523Z" fill="white"/>
<path d="M274.58 118.523L249.001 132.591V128.409L274.58 142.477L267.136 155.404L242.511 141.146L244.993 139.815L245.184 167H230.676L230.867 139.815L233.349 141.146L208.915 155.404L201.28 142.477L227.05 128.409V132.591L201.28 118.523L208.915 105.406L233.349 119.854L230.867 121.375L230.676 94H245.184L244.993 121.375L242.511 119.854L267.136 105.406L274.58 118.523Z" fill="white"/>
<path d="M357.72 118.523L332.141 132.591V128.409L357.72 142.477L350.276 155.404L325.651 141.146L328.133 139.815L328.324 167H313.816L314.007 139.815L316.489 141.146L292.055 155.404L284.42 142.477L310.189 128.409V132.591L284.42 118.523L292.055 105.406L316.489 119.854L314.007 121.375L313.816 94H328.324L328.133 121.375L325.651 119.854L350.276 105.406L357.72 118.523Z" fill="white"/>
<path d="M440.86 118.523L415.281 132.591V128.409L440.86 142.477L433.416 155.404L408.791 141.146L411.273 139.815L411.464 167H396.956L397.147 139.815L399.629 141.146L375.195 155.404L367.56 142.477L393.329 128.409V132.591L367.56 118.523L375.195 105.406L399.629 119.854L397.147 121.375L396.956 94H411.464L411.273 121.375L408.791 119.854L433.416 105.406L440.86 118.523Z" fill="white"/>
<path d="M524 118.523L498.421 132.591V128.409L524 142.477L516.555 155.404L491.931 141.146L494.413 139.815L494.604 167H480.096L480.287 139.815L482.769 141.146L458.335 155.404L450.7 142.477L476.469 128.409V132.591L450.7 118.523L458.335 105.406L482.769 119.854L480.287 121.375L480.096 94H494.604L494.413 121.375L491.931 119.854L516.555 105.406L524 118.523Z" fill="white"/>
</g>
<defs>
<clipPath id="clip0_583_128">
<rect width="405" height="198" rx="38" fill="white"/>
</clipPath>
</defs>
</svg>
