<svg width="61" height="61" viewBox="0 0 61 61" fill="none" xmlns="http://www.w3.org/2000/svg">
<g id="Group 4">
<rect id="Rectangle 16" width="61" height="61" rx="11" fill="#3136AC"/>
<g id="VS">
<path d="M21.6693 43.5L11 18.5H18.6362L27.6284 40.1429H23.1323L32.3385 18.5H39.3324L28.6275 43.5H21.6693Z" fill="white"/>
<path d="M39.9382 44C37.8924 44 35.9179 43.75 34.0148 43.25C32.1355 42.7262 30.6011 42.0595 29.4117 41.25L31.7311 36.0357C32.8492 36.75 34.1338 37.3452 35.5849 37.8214C37.0598 38.2738 38.5228 38.5 39.9739 38.5C40.9492 38.5 41.7343 38.4167 42.329 38.25C42.9237 38.0595 43.3519 37.8214 43.6136 37.5357C43.899 37.2262 44.0418 36.869 44.0418 36.4643C44.0418 35.8929 43.7801 35.4405 43.2567 35.1071C42.7334 34.7738 42.0554 34.5 41.2228 34.2857C40.3902 34.0714 39.4624 33.8571 38.4395 33.6429C37.4404 33.4286 36.4294 33.1548 35.4065 32.8214C34.4073 32.4881 33.4915 32.0595 32.6588 31.5357C31.8262 30.9881 31.1483 30.2857 30.6249 29.4286C30.1016 28.5476 29.8399 27.4405 29.8399 26.1071C29.8399 24.6071 30.2443 23.25 31.0531 22.0357C31.8857 20.8214 33.1227 19.8452 34.7642 19.1071C36.4056 18.369 38.4514 18 40.9017 18C42.5431 18 44.1488 18.1905 45.7189 18.5714C47.3127 18.9286 48.7282 19.4643 49.9652 20.1786L47.7885 25.4286C46.5991 24.7857 45.4215 24.3095 44.2559 24C43.0902 23.6667 41.9603 23.5 40.866 23.5C39.8906 23.5 39.1056 23.6071 38.5109 23.8214C37.9162 24.0119 37.488 24.2738 37.2263 24.6071C36.9646 24.9405 36.8338 25.3214 36.8338 25.75C36.8338 26.2976 37.0836 26.7381 37.5831 27.0714C38.1065 27.381 38.7845 27.6429 39.6171 27.8571C40.4735 28.0476 41.4012 28.25 42.4004 28.4643C43.4233 28.6786 44.4343 28.9524 45.4334 29.2857C46.4563 29.5952 47.3841 30.0238 48.2167 30.5714C49.0493 31.0952 49.7154 31.7976 50.215 32.6786C50.7383 33.5357 51 34.619 51 35.9286C51 37.381 50.5837 38.7262 49.7511 39.9643C48.9423 41.1786 47.7171 42.1548 46.0757 42.8929C44.4581 43.631 42.4122 44 39.9382 44Z" fill="white"/>
</g>
</g>
</svg>
