<svg width="332" height="45" viewBox="0 0 332 45" fill="none" xmlns="http://www.w3.org/2000/svg">
<path d="M22.864 44.792C19.472 44.792 16.384 44.248 13.6 43.16C10.816 42.072 8.416 40.536 6.4 38.552C4.384 36.568 2.832 34.248 1.744 31.592C0.656 28.904 0.112 25.976 0.112 22.808C0.112 19.64 0.656 16.728 1.744 14.072C2.832 11.416 4.384 9.112 6.4 7.16C8.448 5.208 10.88 3.688 13.696 2.6C16.512 1.512 19.632 0.967998 23.056 0.967998C26.352 0.967998 29.376 1.496 32.128 2.552C34.88 3.576 37.248 5.032 39.232 6.92C41.248 8.776 42.8 10.984 43.888 13.544C45.008 16.104 45.568 18.92 45.568 21.992C45.568 24.744 45.2 27.128 44.464 29.144C43.728 31.128 42.672 32.648 41.296 33.704C39.952 34.76 38.304 35.288 36.352 35.288C34.368 35.288 32.784 34.696 31.6 33.512C30.448 32.328 29.872 30.616 29.872 28.376V25.64L30.064 22.904L29.632 16.664V11.192H34.96V27.512C34.96 28.728 35.2 29.592 35.68 30.104C36.192 30.584 36.784 30.824 37.456 30.824C38.32 30.824 39.056 30.488 39.664 29.816C40.272 29.144 40.72 28.152 41.008 26.84C41.328 25.528 41.488 23.944 41.488 22.088C41.488 19.528 41.04 17.192 40.144 15.08C39.28 12.968 38.016 11.16 36.352 9.656C34.72 8.12 32.768 6.952 30.496 6.152C28.256 5.32 25.776 4.904 23.056 4.904C20.272 4.904 17.744 5.352 15.472 6.248C13.2 7.112 11.248 8.344 9.616 9.944C7.984 11.544 6.72 13.448 5.824 15.656C4.96 17.832 4.528 20.216 4.528 22.808C4.528 25.464 4.96 27.896 5.824 30.104C6.688 32.312 7.92 34.2 9.52 35.768C11.152 37.368 13.088 38.6 15.328 39.464C17.568 40.36 20.08 40.808 22.864 40.808C24.336 40.808 25.888 40.632 27.52 40.28C29.152 39.96 30.704 39.432 32.176 38.696L33.472 42.536C32 43.272 30.304 43.832 28.384 44.216C26.464 44.6 24.624 44.792 22.864 44.792ZM21.616 35.288C19.408 35.288 17.44 34.776 15.712 33.752C13.984 32.696 12.608 31.256 11.584 29.432C10.592 27.576 10.096 25.448 10.096 23.048C10.096 20.68 10.592 18.584 11.584 16.76C12.576 14.904 13.936 13.464 15.664 12.44C17.424 11.416 19.408 10.904 21.616 10.904C23.76 10.904 25.632 11.384 27.232 12.344C28.832 13.272 30.08 14.632 30.976 16.424C31.872 18.216 32.32 20.424 32.32 23.048C32.32 25.672 31.888 27.896 31.024 29.72C30.16 31.544 28.928 32.936 27.328 33.896C25.728 34.824 23.824 35.288 21.616 35.288ZM22.624 30.632C24 30.632 25.216 30.344 26.272 29.768C27.328 29.16 28.16 28.28 28.768 27.128C29.408 25.976 29.728 24.616 29.728 23.048C29.728 21.448 29.408 20.104 28.768 19.016C28.16 17.896 27.328 17.048 26.272 16.472C25.216 15.864 24 15.56 22.624 15.56C21.216 15.56 19.968 15.864 18.88 16.472C17.824 17.08 16.992 17.944 16.384 19.064C15.808 20.184 15.52 21.512 15.52 23.048C15.52 24.616 15.808 25.96 16.384 27.08C16.992 28.2 17.824 29.08 18.88 29.72C19.968 30.328 21.216 30.632 22.624 30.632ZM262.013 35.28C261.106 35.28 260.333 34.9733 259.693 34.36C259.053 33.72 258.733 32.92 258.733 31.96C258.733 30.9467 259.053 30.1467 259.693 29.56C260.333 28.9467 261.106 28.64 262.013 28.64C262.919 28.64 263.693 28.9467 264.333 29.56C264.973 30.1467 265.293 30.9467 265.293 31.96C265.293 32.92 264.973 33.72 264.333 34.36C263.693 34.9733 262.919 35.28 262.013 35.28ZM270.818 35V7H282.338C284.818 7 286.938 7.4 288.698 8.2C290.485 9 291.858 10.1467 292.818 11.64C293.778 13.1333 294.258 14.9067 294.258 16.96C294.258 19.0133 293.778 20.7867 292.818 22.28C291.858 23.7733 290.485 24.92 288.698 25.72C286.938 26.52 284.818 26.92 282.338 26.92H273.698L276.018 24.48V35H270.818ZM276.018 25.04L273.698 22.52H282.098C284.392 22.52 286.112 22.04 287.258 21.08C288.432 20.0933 289.018 18.72 289.018 16.96C289.018 15.1733 288.432 13.8 287.258 12.84C286.112 11.88 284.392 11.4 282.098 11.4H273.698L276.018 8.84V25.04ZM313.808 33.2C310.288 33.2 307.288 32.72 304.808 31.76C302.355 30.8 300.475 29.4133 299.168 27.6C297.862 25.76 297.208 23.5467 297.208 20.96C297.208 18.32 297.862 16.0933 299.168 14.28C300.475 12.4667 302.355 11.08 304.808 10.12C307.288 9.16 310.288 8.68 313.808 8.68C313.862 8.68 313.982 8.68 314.168 8.68C314.382 8.68 314.582 8.68 314.768 8.68C314.982 8.68 315.102 8.68 315.128 8.68C318.622 8.68 321.595 9.16 324.048 10.12C326.502 11.08 328.368 12.48 329.648 14.32C330.928 16.1333 331.568 18.3467 331.568 20.96C331.568 23.52 330.928 25.72 329.648 27.56C328.395 29.4 326.555 30.8 324.128 31.76C321.728 32.72 318.795 33.2 315.328 33.2C315.275 33.2 315.128 33.2 314.888 33.2C314.675 33.2 314.448 33.2 314.208 33.2C313.995 33.2 313.862 33.2 313.808 33.2ZM314.328 29.16C314.382 29.16 314.462 29.16 314.568 29.16C314.675 29.16 314.742 29.16 314.768 29.16C317.355 29.1333 319.515 28.8133 321.248 28.2C323.008 27.5867 324.328 26.68 325.208 25.48C326.115 24.2533 326.568 22.7333 326.568 20.92C326.568 19.1067 326.115 17.6 325.208 16.4C324.302 15.2 322.982 14.2933 321.248 13.68C319.515 13.0667 317.382 12.76 314.848 12.76C314.822 12.76 314.742 12.76 314.608 12.76C314.475 12.76 314.382 12.76 314.328 12.76C311.688 12.76 309.462 13.0667 307.648 13.68C305.862 14.2667 304.515 15.1733 303.608 16.4C302.728 17.6 302.288 19.12 302.288 20.96C302.288 22.8 302.755 24.3333 303.688 25.56C304.648 26.76 306.022 27.6667 307.808 28.28C309.595 28.8667 311.768 29.16 314.328 29.16ZM312.008 36.12V5.88H316.808V36.12H312.008Z" fill="#F88600"/>
<path d="M56.2406 22.84V18.72H70.6806V22.84H56.2406ZM59.8806 6.6C61.934 6.6 63.8273 6.96 65.5606 7.68C67.294 8.37333 68.8006 9.37333 70.0806 10.68C71.3873 11.96 72.3873 13.48 73.0806 15.24C73.8006 17 74.1606 18.92 74.1606 21C74.1606 23.08 73.8006 25 73.0806 26.76C72.3873 28.52 71.3873 30.0533 70.0806 31.36C68.8006 32.64 67.294 33.64 65.5606 34.36C63.8273 35.0533 61.934 35.4 59.8806 35.4C57.5073 35.4 55.3473 35 53.4006 34.2C51.4806 33.4 49.8806 32.24 48.6006 30.72L51.8806 27.52C52.9206 28.64 54.0806 29.48 55.3606 30.04C56.6673 30.5733 58.0806 30.84 59.6006 30.84C60.934 30.84 62.174 30.6 63.3206 30.12C64.4673 29.6133 65.454 28.9333 66.2806 28.08C67.1073 27.2 67.7473 26.16 68.2006 24.96C68.654 23.76 68.8806 22.44 68.8806 21C68.8806 19.56 68.654 18.24 68.2006 17.04C67.7473 15.84 67.1073 14.8133 66.2806 13.96C65.454 13.08 64.4673 12.4 63.3206 11.92C62.174 11.4133 60.934 11.16 59.6006 11.16C58.0806 11.16 56.6673 11.44 55.3606 12C54.0806 12.5333 52.9206 13.36 51.8806 14.48L48.6006 11.28C49.8806 9.76 51.4806 8.6 53.4006 7.8C55.3473 7 57.5073 6.6 59.8806 6.6ZM78.6578 35.4C78.2045 35.4 77.7511 35.36 77.2978 35.28C76.8445 35.2 76.3511 35.1067 75.8178 35L76.1778 30.48C76.5511 30.5867 76.9511 30.64 77.3778 30.64C78.4978 30.64 79.3911 30.1867 80.0578 29.28C80.7245 28.3467 81.2045 26.9867 81.4978 25.2C81.7911 23.4133 81.9911 21.2133 82.0978 18.6L82.4978 7H103.098V35H97.9778V10.12L99.1778 11.4H85.8578L86.9778 10.08L86.6978 18.4C86.6178 21.1733 86.4311 23.6133 86.1378 25.72C85.8445 27.8267 85.3911 29.6 84.7778 31.04C84.1911 32.4533 83.4045 33.5333 82.4178 34.28C81.4311 35.0267 80.1778 35.4 78.6578 35.4ZM111.015 35V7H135.775V35H130.655V10.12L131.855 11.4H114.935L116.135 10.12V35H111.015ZM156.67 35.4C154.483 35.4 152.47 35.04 150.63 34.32C148.79 33.6 147.19 32.6 145.83 31.32C144.47 30.0133 143.417 28.4933 142.67 26.76C141.923 25 141.55 23.08 141.55 21C141.55 18.92 141.923 17.0133 142.67 15.28C143.417 13.52 144.47 12 145.83 10.72C147.19 9.41333 148.79 8.4 150.63 7.68C152.47 6.96 154.47 6.6 156.63 6.6C158.817 6.6 160.817 6.96 162.63 7.68C164.47 8.4 166.07 9.41333 167.43 10.72C168.79 12 169.843 13.52 170.59 15.28C171.337 17.0133 171.71 18.92 171.71 21C171.71 23.08 171.337 25 170.59 26.76C169.843 28.52 168.79 30.04 167.43 31.32C166.07 32.6 164.47 33.6 162.63 34.32C160.817 35.04 158.83 35.4 156.67 35.4ZM156.63 30.84C158.043 30.84 159.35 30.6 160.55 30.12C161.75 29.64 162.79 28.96 163.67 28.08C164.55 27.1733 165.23 26.1333 165.71 24.96C166.217 23.76 166.47 22.44 166.47 21C166.47 19.56 166.217 18.2533 165.71 17.08C165.23 15.88 164.55 14.84 163.67 13.96C162.79 13.0533 161.75 12.36 160.55 11.88C159.35 11.4 158.043 11.16 156.63 11.16C155.217 11.16 153.91 11.4 152.71 11.88C151.537 12.36 150.497 13.0533 149.59 13.96C148.71 14.84 148.017 15.88 147.51 17.08C147.03 18.2533 146.79 19.56 146.79 21C146.79 22.4133 147.03 23.72 147.51 24.92C148.017 26.12 148.71 27.1733 149.59 28.08C150.47 28.96 151.51 29.64 152.71 30.12C153.91 30.6 155.217 30.84 156.63 30.84ZM194.353 24.12C192.886 24.7333 191.46 25.1867 190.073 25.48C188.686 25.7733 187.34 25.92 186.033 25.92C182.46 25.92 179.7 25.0667 177.753 23.36C175.833 21.6267 174.873 19.1467 174.873 15.92V7H180.033V15.36C180.033 17.3333 180.606 18.84 181.753 19.88C182.9 20.92 184.54 21.44 186.673 21.44C187.953 21.44 189.233 21.2933 190.513 21C191.82 20.7067 193.073 20.2533 194.273 19.64L194.353 24.12ZM193.553 35V7H198.713V35H193.553ZM212.441 35V10.12L213.681 11.4H203.201V7H226.881V11.4H216.401L217.601 10.12V35H212.441ZM226.399 35L238.999 7H244.119L256.759 35H251.319L240.479 9.76H242.559L231.759 35H226.399ZM232.199 28.52L233.599 24.44H248.719L250.119 28.52H232.199Z" fill="white"/>
</svg>
