<svg width="46" height="46" viewBox="0 0 46 46" fill="none" xmlns="http://www.w3.org/2000/svg">
<g clip-path="url(#clip0_441_428)">
<path d="M22.9998 8.625C13.4165 8.625 5.23234 14.5858 1.9165 23C5.23234 31.4142 13.4165 37.375 22.9998 37.375C32.5832 37.375 40.7673 31.4142 44.0832 23C40.7673 14.5858 32.5832 8.625 22.9998 8.625ZM22.9998 32.5833C17.7098 32.5833 13.4165 28.29 13.4165 23C13.4165 17.71 17.7098 13.4167 22.9998 13.4167C28.2898 13.4167 32.5832 17.71 32.5832 23C32.5832 28.29 28.2898 32.5833 22.9998 32.5833ZM22.9998 17.25C19.8182 17.25 17.2498 19.8183 17.2498 23C17.2498 26.1817 19.8182 28.75 22.9998 28.75C26.1815 28.75 28.7498 26.1817 28.7498 23C28.7498 19.8183 26.1815 17.25 22.9998 17.25Z" fill="#263238"/>
</g>
<defs>
<clipPath id="clip0_441_428">
<rect width="46" height="46" fill="white"/>
</clipPath>
</defs>
</svg>
