<svg width="25" height="25" viewBox="0 0 25 25" fill="none" xmlns="http://www.w3.org/2000/svg">
<path fill-rule="evenodd" clip-rule="evenodd" d="M13.2053 0.0312243C12.4256 0.252268 11.9774 1.23134 12.0744 2.50168L12.1085 2.94777L11.809 3.6751C11.3335 4.83009 10.864 5.84256 10.3155 6.89596C9.40347 8.64734 8.79368 9.5502 7.98719 10.3429C7.24672 11.0707 7.04123 11.344 6.60266 12.1843C6.60035 12.1887 6.44023 12.1398 6.2468 12.0756C5.89972 11.9604 5.86907 11.9588 3.90712 11.9576C1.79152 11.9563 1.66812 11.9677 1.17992 12.2097C0.751602 12.422 0.315449 12.9281 0.113224 13.4476C0.0227379 13.6799 0.0172615 13.9137 0.00294246 18.1657C-0.00635235 20.9375 0.00671063 22.7573 0.0373584 22.9494C0.185724 23.8785 0.965282 24.6356 1.91059 24.7686C2.08483 24.7931 2.99612 24.8132 3.93565 24.8133C5.80502 24.8135 6.12149 24.7809 6.57317 24.5416L6.82106 24.4103L7.96583 24.538C10.1747 24.7845 11.9639 24.9027 13.9908 24.9361C14.7056 24.9479 15.7765 24.9724 16.3706 24.9906C19.4044 25.0836 21.5118 24.4854 22.5501 23.2367C23.0373 22.6507 23.2529 22.0567 23.2637 21.2704L23.2705 20.7815L23.5259 20.4998C24.3563 19.584 24.6535 18.4647 24.358 17.3664L24.2563 16.9888L24.4113 16.7695C24.8204 16.1908 25.0428 15.4608 24.9931 14.8594C24.9541 14.3873 24.7545 13.7974 24.5081 13.4264L24.3043 13.1196L24.3812 12.8925C24.7376 11.8405 24.4798 10.7433 23.7005 9.99537C22.4941 8.83759 19.9659 8.57293 16.5521 9.24711C16.2236 9.31194 15.9207 9.36504 15.8789 9.36504C15.815 9.36504 15.8076 9.30153 15.8324 8.96167C15.8687 8.46307 16.0229 7.82194 16.4136 6.54427C16.7941 5.3003 16.9062 4.79582 16.9684 4.0484C17.022 3.40424 16.9821 2.83904 16.8482 2.34893C16.5506 1.2599 15.6492 0.386723 14.5315 0.104906C14.1418 0.0066313 13.4313 -0.032874 13.2053 0.0312243ZM13.5719 1.57887C13.5499 1.67974 13.5374 2.08487 13.5442 2.47928L13.5565 3.19629L13.2848 3.87273C12.6293 5.50432 11.6132 7.62544 10.9466 8.75388C10.2573 9.92066 9.37694 11.0766 8.86929 11.4814C8.55176 11.7346 8.23443 12.1626 7.9483 12.7237L7.70382 13.2031L7.72859 13.6432C7.74226 13.8852 7.75356 16.1129 7.75371 18.5935C7.75401 22.5693 7.76301 23.1041 7.82943 23.1054C7.87088 23.1062 8.07436 23.1285 8.28161 23.1548C8.89642 23.233 10.7053 23.389 11.6227 23.4429C12.8908 23.5175 17.2704 23.6054 17.8779 23.5685C20.3417 23.4188 21.8036 22.5876 21.8169 21.3289C21.8189 21.1354 21.801 20.8523 21.7771 20.6998C21.7532 20.5473 21.7492 20.3622 21.7682 20.2885C21.7878 20.2126 21.9933 19.9722 22.2425 19.7339C22.5403 19.449 22.7284 19.2214 22.8253 19.0285C23.0757 18.5305 23.0737 17.9056 22.8199 17.3188C22.637 16.8959 22.6681 16.6304 22.9369 16.3194C23.6999 15.4365 23.7378 14.6786 23.0594 13.8681C22.6385 13.3651 22.6249 13.282 22.8754 12.7421C23.4275 11.552 22.8822 10.707 21.3686 10.4077C21.0055 10.3359 20.6922 10.3191 19.762 10.3217C18.4964 10.3253 18.1092 10.3669 16.6259 10.6593C16.1445 10.7542 15.6697 10.8317 15.5708 10.8315C15.0985 10.8308 14.7552 10.6106 14.5309 10.1646C14.4207 9.9453 14.3911 9.80684 14.372 9.42083C14.3326 8.62436 14.5101 7.70186 14.9937 6.19083C15.4572 4.74243 15.5983 3.91824 15.5118 3.16559C15.434 2.48945 15.2109 2.05475 14.7759 1.73201C14.5632 1.57423 14.0344 1.39553 13.7801 1.39553C13.6263 1.39553 13.6084 1.41122 13.5719 1.57887ZM1.81593 13.4758C1.72781 13.5307 1.60873 13.67 1.55136 13.7853C1.44786 13.9935 1.44721 14.0274 1.46042 18.4481C1.47363 22.8593 1.47474 22.9025 1.57738 23.0362C1.63436 23.1104 1.74338 23.2165 1.81965 23.272C1.95279 23.3688 2.03042 23.3733 3.77598 23.3869C5.86119 23.4031 5.92153 23.3944 6.16159 23.0413L6.29704 22.8421V18.3562C6.29704 13.8812 6.29679 13.87 6.19193 13.7323C6.1341 13.6564 6.01206 13.5448 5.92072 13.4843C5.75568 13.3749 5.74256 13.3742 3.86541 13.3751C2.04941 13.3759 1.96998 13.3798 1.81593 13.4758Z" fill="white"/>
</svg>
