<svg width="25" height="25" viewBox="0 0 25 25" fill="none" xmlns="http://www.w3.org/2000/svg">
<path fill-rule="evenodd" clip-rule="evenodd" d="M13.2053 0.0312243C12.4256 0.252268 11.9774 1.23134 12.0744 2.50168L12.1085 2.94777L11.809 3.6751C11.3335 4.83009 10.864 5.84256 10.3155 6.89596C9.40347 8.64734 8.79368 9.5502 7.98719 10.3429C7.24672 11.0707 7.04123 11.344 6.60266 12.1843C6.60035 12.1887 6.44023 12.1398 6.2468 12.0756C5.89972 11.9604 5.86907 11.9588 3.90712 11.9576C1.79152 11.9563 1.66812 11.9677 1.17992 12.2097C0.751602 12.422 0.315449 12.9281 0.113224 13.4476C0.0227379 13.6799 0.0172615 13.9137 0.00294246 18.1657C-0.00635235 20.9375 0.00671063 22.7573 0.0373584 22.9494C0.185724 23.8785 0.965282 24.6356 1.91059 24.7686C2.08483 24.7931 2.99612 24.8132 3.93565 24.8133C5.80502 24.8135 6.12149 24.7809 6.57317 24.5416L6.82106 24.4103L7.96583 24.538C10.1747 24.7845 11.9639 24.9027 13.9908 24.9361C14.7056 24.9479 15.7765 24.9724 16.3706 24.9906C19.4044 25.0836 21.5118 24.4854 22.5501 23.2367C23.0373 22.6507 23.2529 22.0567 23.2637 21.2704L23.2705 20.7815L23.5259 20.4998C24.3563 19.584 24.6535 18.4647 24.358 17.3664L24.2563 16.9888L24.4113 16.7695C24.8204 16.1908 25.0428 15.4608 24.9931 14.8594C24.9541 14.3873 24.7545 13.7974 24.5081 13.4264L24.3043 13.1196L24.3812 12.8925C24.7376 11.8405 24.4798 10.7433 23.7005 9.99536C22.4941 8.83759 19.9659 8.57293 16.5521 9.24711C16.2236 9.31194 15.9207 9.36504 15.8789 9.36504C15.815 9.36504 15.8076 9.30153 15.8324 8.96167C15.8687 8.46307 16.0229 7.82194 16.4136 6.54427C16.7941 5.3003 16.9062 4.79582 16.9684 4.0484C17.022 3.40424 16.9821 2.83904 16.8482 2.34893C16.5506 1.2599 15.6492 0.386723 14.5315 0.104906C14.1418 0.0066313 13.4313 -0.032874 13.2053 0.0312243Z" fill="white"/>
</svg>
