<svg width="148" height="172" viewBox="0 0 148 172" fill="none" xmlns="http://www.w3.org/2000/svg">
<path fill-rule="evenodd" clip-rule="evenodd" d="M49.7586 12.3531L6.4619 18.6399L5.08279 19.788C4.32424 20.4196 3.33449 21.5952 2.88283 22.4004C1.34561 25.142 1.36442 25.7365 3.46048 40.5511C4.57005 48.3933 5.52237 54.2346 5.76247 54.6697C6.41301 55.8498 8.36748 55.8922 9.33321 54.7474C9.73517 54.271 9.72493 53.6144 9.26577 50.3692L8.72562 46.5515L61.9165 39.0257L128.189 29.5331L135.942 84.3476C141.072 120.608 143.644 139.561 143.541 140.341C143.447 141.057 142.987 141.956 142.369 142.631C141.809 143.242 141.137 143.987 140.876 144.288C140.245 145.013 140.508 146.777 141.332 147.334C142.829 148.347 145.668 146.657 147.027 143.943C148.478 141.044 148.923 144.87 138.905 74.0596C128.729 2.14403 129.582 7.15635 127.102 4.70904C124.301 1.94584 108.643 3.66089 98.7665 5.18482C95.6255 5.66961 73.5721 8.89522 49.7586 12.3531ZM109.374 8.89033C110.006 9.10412 123.956 7.75945 124.386 8.3058C125.106 9.22055 125.263 9.91562 126.369 17.094L127.571 24.8889L61.2602 34.387L8.03064 41.9182L7.02264 34.096C5.90289 25.4104 5.94296 24.8152 7.74324 23.3353C8.63049 22.6057 9.60049 22.4565 58.4367 15.5462C105.224 8.92583 108.295 8.52474 109.374 8.89033ZM15.5578 24.8727C13.1874 26.4478 12.1013 28.8619 12.5026 31.6646C13.0775 35.6837 16.5013 38.1962 20.6109 37.6148C22.42 37.3588 24.7936 35.5723 25.6874 33.7939C26.3637 32.4478 26.3963 32.1025 26.0663 29.7701C25.7384 27.4529 25.6055 27.1112 24.6143 26.0398C22.2626 23.4979 18.3797 22.9975 15.5578 24.8727ZM34.1128 22.2475C31.7424 23.8225 30.6563 26.2366 31.0575 29.0393C31.6325 33.0584 35.0563 35.571 39.1659 34.9895C40.975 34.7335 43.3486 32.947 44.2423 31.1686C44.9187 29.8225 44.9512 29.4772 44.6212 27.1449C44.2934 24.8276 44.1605 24.4859 43.1692 23.4145C40.8176 20.8727 36.9347 20.3723 34.1128 22.2475ZM52.6677 19.6222C50.2973 21.1972 49.2112 23.6114 49.6125 26.4141C50.1875 30.4331 53.6112 32.9457 57.7208 32.3642C59.53 32.1083 61.9035 30.3217 62.7973 28.5433C63.4734 27.1976 63.5061 26.8513 63.1768 24.5236C62.8576 22.2676 62.6993 21.8443 61.7924 20.8209C59.539 18.2781 55.4908 17.7462 52.6677 19.6222ZM20.1184 28.2727C21.1517 28.6485 21.7178 29.2851 21.8636 30.2354C22.0535 31.4706 21.8332 32.0541 20.9366 32.691C19.7778 33.5146 18.955 33.5446 17.9637 32.7988C15.6583 31.0651 17.4501 27.3023 20.1184 28.2727ZM38.6734 25.6474C39.7066 26.0233 40.2727 26.6599 40.4185 27.6101C40.6084 28.8454 40.3882 29.4289 39.4916 30.0658C38.3328 30.8893 37.5099 30.9193 36.5187 30.1735C34.2132 28.4398 36.005 24.6771 38.6734 25.6474ZM57.2284 23.0221C58.2616 23.398 58.8277 24.0346 58.9735 24.9849C59.1647 26.2297 58.942 26.8044 58.0116 27.4653C55.1898 29.4708 52.3443 25.3891 55.1202 23.3179C55.8605 22.7652 56.3378 22.6983 57.2284 23.0221ZM39.9695 51.9326C39.095 52.8459 39.1845 54.1448 40.1863 55.0771L40.8806 55.7236L63.8198 52.4781L106.665 46.2395L107.153 45.4257C107.857 44.2521 107.582 42.9793 106.489 42.3445C105.591 41.8235 85.4714 44.8408 63.1854 47.9939C40.8993 51.1471 40.6871 51.1831 39.9695 51.9326ZM7.6998 60.8936C7.34957 61.0959 6.95207 61.5638 6.81699 61.9333C6.6432 62.4084 8.5908 76.7064 13.4697 110.77L21.4797 166.329L22.3489 167.675C23.5384 169.516 25.7895 171.08 27.9324 171.554C29.68 171.94 30.2487 171.871 60.6383 167.571L91.5657 163.195L92.2172 162.328C93.0127 161.271 92.9387 160.507 91.9498 159.56L91.1975 158.84L60.1481 163.15C29.3345 167.427 29.0913 167.455 28.1544 166.943C27.635 166.658 26.869 166.082 26.4519 165.662C25.6945 164.899 25.6841 164.833 17.7018 109.469L10.8215 61.4342L9.92144 60.9115C8.9403 60.3421 8.65921 60.3396 7.6998 60.8936ZM30.5935 61.8792C29.4198 62.6042 28.3514 64.3629 28.2927 65.667C28.2668 66.2463 30.1227 79.6536 30.4914 81.854C31.1278 85.6471 31.2139 85.9058 32.1501 86.8282C34.1866 88.8352 31.7079 89.0386 68.2609 83.8669C104.816 78.6949 119.439 76.6221 120.838 74.1275C121.509 72.932 121.508 72.8592 120.827 68.0454C120.073 62.714 118.332 51.2168 116.102 49.9961C115.163 49.4826 97.8931 52.073 64.7868 56.6886C37.5679 60.4836 31.3164 61.4324 30.5935 61.8792ZM116.502 68.6886L117.005 72.245L67.6265 79.3828L35.3099 83.9551L34.7647 80.7416C34.4648 78.974 32.6888 66.2008 32.7432 65.9637C32.8246 65.6093 38.5844 64.7345 65.1018 61.0486L114.424 53.9993L116.502 68.6886ZM34.5546 93.1309C32.5813 94.9257 34.4767 109.279 35.2387 114.665C35.8928 119.287 35.9661 119.556 36.8145 120.449C37.304 120.964 38.3115 121.563 39.0534 121.781C40.3415 122.16 41.8717 121.97 73.0282 117.561C104.185 113.153 122.77 110.346 123.902 109.625C124.555 109.21 125.356 108.354 125.684 107.724C126.251 106.631 126.247 106.352 125.593 101.729C124.831 96.3433 122.67 82.028 120.276 80.8511L119.156 80.2999L68.786 87.5779L35.4786 92.2904L34.5546 93.1309ZM121.334 102.205C121.752 104.689 121.806 105.649 121.539 105.877C121.125 106.23 41.1968 117.764 40.4091 117.583C39.983 117.485 39.8116 116.887 39.424 114.147C39.1658 112.323 37.0658 96.8072 37.1638 96.6769C37.2618 96.5467 51.8309 94.426 69.5394 91.9647L118.799 84.9242L121.334 102.205ZM64.7832 123.387C60.6263 125.384 58.8833 130.013 60.738 134.129C61.6378 136.125 63.5171 137.819 65.5833 138.497C67.0944 138.993 87.5294 136.129 94.5222 135.14C101.515 134.151 101.841 134.077 103.155 133.181C107.757 130.045 107.867 123.14 103.365 119.966C100.889 118.221 100.59 118.2 92.7459 119.242C88.8292 119.762 65.1902 123.191 64.7832 123.387ZM100.126 123.24C102.293 124.291 102.921 127.29 101.323 128.959C100.652 129.659 100.189 129.764 93.8877 130.656C87.5862 131.548 67.0109 134.419 66.1727 133.932C64.1742 132.772 63.9452 129.717 65.736 128.105C66.6464 127.286 87.0458 124.369 92.8814 123.543C98.7169 122.718 99.0236 122.705 100.126 123.24ZM100.833 124.549C99.2117 125.902 99.2126 125.933 101.501 142.086C103.498 156.192 103.63 156.922 104.322 157.706C106.205 159.838 108.05 159.539 112.004 156.462C114.723 154.345 115.051 154.167 115.462 154.589C115.711 154.844 117.165 156.653 118.692 158.608C121.199 161.815 121.608 162.2 122.885 162.562C124.676 163.069 125.286 162.832 128.531 160.366C131.617 158.021 132.531 156.96 132.72 155.502C132.912 154.019 132.368 153.029 129.034 148.794L126.3 145.322L129.294 142.921C130.942 141.601 132.512 140.111 132.785 139.609C133.44 138.4 133.152 136.363 132.186 135.385C131.754 134.948 125.866 132.383 117.769 129.105C103.054 123.147 102.644 123.037 100.833 124.549ZM116.22 133.253C122.709 135.848 128.032 138.04 128.048 138.125C128.065 138.209 126.846 139.233 125.338 140.401C120.644 144.038 120.621 145.151 125.127 151.005L128.183 154.976L126.315 156.444C125.288 157.252 124.333 157.956 124.193 158.009C124.053 158.062 122.599 156.393 120.963 154.3C117.583 149.978 116.722 149.347 114.611 149.649C113.423 149.82 112.717 150.215 110.659 151.865C109.281 152.969 108.028 153.891 107.874 153.912C107.711 153.935 106.842 148.642 105.799 141.273C104.813 134.299 104.099 128.58 104.214 128.564C104.329 128.548 109.731 130.658 116.22 133.253Z" fill="white"/>
<path fill-rule="evenodd" clip-rule="evenodd" d="M68.3075 94.4898C67.8783 95.061 67.9345 95.1574 69.3183 96.2187L70.7839 97.3428L69.7354 98.939C69.1584 99.8171 68.5246 101.054 68.3269 101.688C67.9762 102.811 67.9936 102.874 69.036 104.278C71.8753 108.099 77.2716 109.663 81.8706 107.997L83.9248 107.252L85.7614 108.6C87.5794 109.934 87.6037 109.94 88.1583 109.275C88.7176 108.603 88.6974 108.586 78.9084 101.22C73.5128 97.1595 69.0224 93.8484 68.9303 93.8614C68.8381 93.8744 68.5579 94.1573 68.3075 94.4898ZM76.4009 94.2053C76.2403 94.2964 75.5821 94.5381 74.9379 94.7425L73.7668 95.1136L74.9649 96.0481C76.0484 96.8932 76.2786 96.9483 77.3741 96.6248C78.2909 96.3538 78.9431 96.3906 80.058 96.775C82.194 97.5119 82.9907 98.4631 83.3402 100.693C83.6138 102.439 83.7106 102.6 85.173 103.721L86.7168 104.905L87.4517 103.97C87.8556 103.456 88.4681 102.243 88.8128 101.275L89.439 99.5138L87.9568 97.9025C86.2282 96.0232 83.6584 94.4985 81.5947 94.1278C80.1039 93.8599 76.9247 93.9075 76.4009 94.2053ZM79.8634 99.7273C81.6086 101.066 81.6314 101.076 81.5443 100.46C81.4412 99.7312 79.6582 98.3369 78.9562 98.4362C78.3937 98.5158 78.5224 98.6988 79.8634 99.7273ZM73.8473 100.911C73.6395 102.878 74.8488 104.908 76.7048 105.708C77.7603 106.163 80.706 106.017 81.1021 105.49C81.4773 104.991 79.732 104.004 78.727 104.147C77.5042 104.32 75.9177 103.052 75.7342 101.756C75.6265 100.994 74.6754 99.9882 74.1354 100.065C74.0247 100.08 73.895 100.461 73.8473 100.911Z" fill="white"/>
</svg>
