<svg width="46" height="46" viewBox="0 0 46 46" fill="none" xmlns="http://www.w3.org/2000/svg">
<g id="Home" clip-path="url(#clip0_478_208)">
<path id="Vector" d="M19.167 36.4165V26.8332H26.8336V36.4165C26.8336 37.4707 27.6961 38.3332 28.7503 38.3332H34.5003C35.5545 38.3332 36.417 37.4707 36.417 36.4165V22.9999H39.6753C40.557 22.9999 40.9786 21.9074 40.3078 21.3324L24.2845 6.89988C23.5561 6.24822 22.4445 6.24822 21.7161 6.89988L5.69281 21.3324C5.04114 21.9074 5.44364 22.9999 6.32531 22.9999H9.58364V36.4165C9.58364 37.4707 10.4461 38.3332 11.5003 38.3332H17.2503C18.3045 38.3332 19.167 37.4707 19.167 36.4165Z" fill="#263238"/>
</g>
<defs>
<clipPath id="clip0_478_208">
<rect width="46" height="46" fill="white"/>
</clipPath>
</defs>
</svg>
