<svg xmlns="http://www.w3.org/2000/svg" width="332" height="44" viewBox="0 0 332 44" fill="none">
    <path d="M22.752 43.824C19.36 43.824 16.272 43.28 13.488 42.192C10.704 41.104 8.304 39.568 6.288 37.584C4.272 35.6 2.72 33.28 1.632 30.624C0.544 27.936 0 25.008 0 21.84C0 18.672 0.544 15.76 1.632 13.104C2.72 10.448 4.272 8.144 6.288 6.192C8.336 4.24 10.768 2.72 13.584 1.632C16.4 0.544001 19.52 0 22.944 0C26.24 0 29.264 0.528 32.016 1.584C34.768 2.608 37.136 4.064 39.12 5.952C41.136 7.808 42.688 10.016 43.776 12.576C44.896 15.136 45.456 17.952 45.456 21.024C45.456 23.776 45.088 26.16 44.352 28.176C43.616 30.16 42.56 31.68 41.184 32.736C39.84 33.792 38.192 34.32 36.24 34.32C34.256 34.32 32.672 33.728 31.488 32.544C30.336 31.36 29.76 29.648 29.76 27.408V24.672L29.952 21.936L29.52 15.696V10.224H34.848V26.544C34.848 27.76 35.088 28.624 35.568 29.136C36.08 29.616 36.672 29.856 37.344 29.856C38.208 29.856 38.944 29.52 39.552 28.848C40.16 28.176 40.608 27.184 40.896 25.872C41.216 24.56 41.376 22.976 41.376 21.12C41.376 18.56 40.928 16.224 40.032 14.112C39.168 12 37.904 10.192 36.24 8.688C34.608 7.152 32.656 5.984 30.384 5.184C28.144 4.352 25.664 3.936 22.944 3.936C20.16 3.936 17.632 4.384 15.36 5.28C13.088 6.144 11.136 7.376 9.504 8.976C7.872 10.576 6.608 12.48 5.712 14.688C4.848 16.864 4.416 19.248 4.416 21.84C4.416 24.496 4.848 26.928 5.712 29.136C6.576 31.344 7.808 33.232 9.408 34.8C11.04 36.4 12.976 37.632 15.216 38.496C17.456 39.392 19.968 39.84 22.752 39.84C24.224 39.84 25.776 39.664 27.408 39.312C29.04 38.992 30.592 38.464 32.064 37.728L33.36 41.568C31.888 42.304 30.192 42.864 28.272 43.248C26.352 43.632 24.512 43.824 22.752 43.824ZM21.504 34.32C19.296 34.32 17.328 33.808 15.6 32.784C13.872 31.728 12.496 30.288 11.472 28.464C10.48 26.608 9.984 24.48 9.984 22.08C9.984 19.712 10.48 17.616 11.472 15.792C12.464 13.936 13.824 12.496 15.552 11.472C17.312 10.448 19.296 9.936 21.504 9.936C23.648 9.936 25.52 10.416 27.12 11.376C28.72 12.304 29.968 13.664 30.864 15.456C31.76 17.248 32.208 19.456 32.208 22.08C32.208 24.704 31.776 26.928 30.912 28.752C30.048 30.576 28.816 31.968 27.216 32.928C25.616 33.856 23.712 34.32 21.504 34.32ZM22.512 29.664C23.888 29.664 25.104 29.376 26.16 28.8C27.216 28.192 28.048 27.312 28.656 26.16C29.296 25.008 29.616 23.648 29.616 22.08C29.616 20.48 29.296 19.136 28.656 18.048C28.048 16.928 27.216 16.08 26.16 15.504C25.104 14.896 23.888 14.592 22.512 14.592C21.104 14.592 19.856 14.896 18.768 15.504C17.712 16.112 16.88 16.976 16.272 18.096C15.696 19.216 15.408 20.544 15.408 22.08C15.408 23.648 15.696 24.992 16.272 26.112C16.88 27.232 17.712 28.112 18.768 28.752C19.856 29.36 21.104 29.664 22.512 29.664Z" fill="#F88600"/>
    <path d="M56.1286 21.872V17.752H70.5686V21.872H56.1286ZM59.7686 5.632C61.822 5.632 63.7153 5.992 65.4486 6.712C67.182 7.40534 68.6886 8.40534 69.9686 9.712C71.2753 10.992 72.2753 12.512 72.9686 14.272C73.6886 16.032 74.0486 17.952 74.0486 20.032C74.0486 22.112 73.6886 24.032 72.9686 25.792C72.2753 27.552 71.2753 29.0853 69.9686 30.392C68.6886 31.672 67.182 32.672 65.4486 33.392C63.7153 34.0853 61.822 34.432 59.7686 34.432C57.3953 34.432 55.2353 34.032 53.2886 33.232C51.3686 32.432 49.7686 31.272 48.4886 29.752L51.7686 26.552C52.8086 27.672 53.9686 28.512 55.2486 29.072C56.5553 29.6053 57.9686 29.872 59.4886 29.872C60.822 29.872 62.062 29.632 63.2086 29.152C64.3553 28.6453 65.342 27.9653 66.1686 27.112C66.9953 26.232 67.6353 25.192 68.0886 23.992C68.542 22.792 68.7686 21.472 68.7686 20.032C68.7686 18.592 68.542 17.272 68.0886 16.072C67.6353 14.872 66.9953 13.8453 66.1686 12.992C65.342 12.112 64.3553 11.432 63.2086 10.952C62.062 10.4453 60.822 10.192 59.4886 10.192C57.9686 10.192 56.5553 10.472 55.2486 11.032C53.9686 11.5653 52.8086 12.392 51.7686 13.512L48.4886 10.312C49.7686 8.792 51.3686 7.632 53.2886 6.832C55.2353 6.032 57.3953 5.632 59.7686 5.632Z" fill="white"/>
    <path d="M78.5458 34.432C78.0925 34.432 77.6391 34.392 77.1858 34.312C76.7325 34.232 76.2391 34.1387 75.7058 34.032L76.0658 29.512C76.4391 29.6187 76.8391 29.672 77.2658 29.672C78.3858 29.672 79.2791 29.2187 79.9458 28.312C80.6125 27.3787 81.0925 26.0187 81.3858 24.232C81.6791 22.4453 81.8791 20.2453 81.9858 17.632L82.3858 6.032H102.986V34.032H97.8658V9.152L99.0658 10.432H85.7458L86.8658 9.112L86.5858 17.432C86.5058 20.2053 86.3191 22.6453 86.0258 24.752C85.7325 26.8587 85.2791 28.632 84.6658 30.072C84.0791 31.4853 83.2925 32.5653 82.3058 33.312C81.3191 34.0587 80.0658 34.432 78.5458 34.432Z" fill="white"/>
    <path d="M110.903 34.032V6.032H135.663V34.032H130.543V9.152L131.743 10.432H114.823L116.023 9.152V34.032H110.903Z" fill="white"/>
    <path d="M156.558 34.432C154.371 34.432 152.358 34.072 150.518 33.352C148.678 32.632 147.078 31.632 145.718 30.352C144.358 29.0453 143.305 27.5253 142.558 25.792C141.811 24.032 141.438 22.112 141.438 20.032C141.438 17.952 141.811 16.0453 142.558 14.312C143.305 12.552 144.358 11.032 145.718 9.752C147.078 8.44534 148.678 7.432 150.518 6.712C152.358 5.992 154.358 5.632 156.518 5.632C158.705 5.632 160.705 5.992 162.518 6.712C164.358 7.432 165.958 8.44534 167.318 9.752C168.678 11.032 169.731 12.552 170.478 14.312C171.225 16.0453 171.598 17.952 171.598 20.032C171.598 22.112 171.225 24.032 170.478 25.792C169.731 27.552 168.678 29.072 167.318 30.352C165.958 31.632 164.358 32.632 162.518 33.352C160.705 34.072 158.718 34.432 156.558 34.432ZM156.518 29.872C157.931 29.872 159.238 29.632 160.438 29.152C161.638 28.672 162.678 27.992 163.558 27.112C164.438 26.2053 165.118 25.1653 165.598 23.992C166.105 22.792 166.358 21.472 166.358 20.032C166.358 18.592 166.105 17.2853 165.598 16.112C165.118 14.912 164.438 13.872 163.558 12.992C162.678 12.0853 161.638 11.392 160.438 10.912C159.238 10.432 157.931 10.192 156.518 10.192C155.105 10.192 153.798 10.432 152.598 10.912C151.425 11.392 150.385 12.0853 149.478 12.992C148.598 13.872 147.905 14.912 147.398 16.112C146.918 17.2853 146.678 18.592 146.678 20.032C146.678 21.4453 146.918 22.752 147.398 23.952C147.905 25.152 148.598 26.2053 149.478 27.112C150.358 27.992 151.398 28.672 152.598 29.152C153.798 29.632 155.105 29.872 156.518 29.872Z" fill="white"/>
    <path d="M194.241 23.152C192.774 23.7653 191.348 24.2187 189.961 24.512C188.574 24.8053 187.228 24.952 185.921 24.952C182.348 24.952 179.588 24.0987 177.641 22.392C175.721 20.6587 174.761 18.1787 174.761 14.952V6.032H179.921V14.392C179.921 16.3653 180.494 17.872 181.641 18.912C182.788 19.952 184.428 20.472 186.561 20.472C187.841 20.472 189.121 20.3253 190.401 20.032C191.708 19.7387 192.961 19.2853 194.161 18.672L194.241 23.152ZM193.441 34.032V6.032H198.601V34.032H193.441Z" fill="white"/>
    <path d="M212.329 34.032V9.152L213.569 10.432H203.089V6.032H226.769V10.432H216.289L217.489 9.152V34.032H212.329Z" fill="white"/>
    <path d="M226.287 34.032L238.887 6.032H244.007L256.647 34.032H251.207L240.367 8.792H242.447L231.647 34.032H226.287ZM232.087 27.552L233.487 23.472H248.607L250.007 27.552H232.087Z" fill="white"/>
    <path d="M261.901 34.312C260.994 34.312 260.221 34.0053 259.581 33.392C258.941 32.752 258.621 31.952 258.621 30.992C258.621 29.9787 258.941 29.1787 259.581 28.592C260.221 27.9787 260.994 27.672 261.901 27.672C262.807 27.672 263.581 27.9787 264.221 28.592C264.861 29.1787 265.181 29.9787 265.181 30.992C265.181 31.952 264.861 32.752 264.221 33.392C263.581 34.0053 262.807 34.312 261.901 34.312Z" fill="#F88600"/>
    <path d="M270.706 34.032V6.032H282.226C284.706 6.032 286.826 6.432 288.586 7.232C290.373 8.032 291.746 9.17867 292.706 10.672C293.666 12.1653 294.146 13.9387 294.146 15.992C294.146 18.0453 293.666 19.8187 292.706 21.312C291.746 22.8053 290.373 23.952 288.586 24.752C286.826 25.552 284.706 25.952 282.226 25.952H273.586L275.906 23.512V34.032H270.706ZM275.906 24.072L273.586 21.552H281.986C284.28 21.552 286 21.072 287.146 20.112C288.32 19.1253 288.906 17.752 288.906 15.992C288.906 14.2053 288.32 12.832 287.146 11.872C286 10.912 284.28 10.432 281.986 10.432H273.586L275.906 7.872V24.072Z" fill="#F88600"/>
    <path d="M313.696 32.232C310.176 32.232 307.176 31.752 304.696 30.792C302.243 29.832 300.363 28.4453 299.056 26.632C297.75 24.792 297.096 22.5787 297.096 19.992C297.096 17.352 297.75 15.1253 299.056 13.312C300.363 11.4987 302.243 10.112 304.696 9.152C307.176 8.192 310.176 7.712 313.696 7.712C313.75 7.712 313.87 7.712 314.056 7.712C314.27 7.712 314.47 7.712 314.656 7.712C314.87 7.712 314.99 7.712 315.016 7.712C318.51 7.712 321.483 8.192 323.936 9.152C326.39 10.112 328.256 11.512 329.536 13.352C330.816 15.1653 331.456 17.3787 331.456 19.992C331.456 22.552 330.816 24.752 329.536 26.592C328.283 28.432 326.443 29.832 324.016 30.792C321.616 31.752 318.683 32.232 315.216 32.232C315.163 32.232 315.016 32.232 314.776 32.232C314.563 32.232 314.336 32.232 314.096 32.232C313.883 32.232 313.75 32.232 313.696 32.232ZM314.216 28.192C314.27 28.192 314.35 28.192 314.456 28.192C314.563 28.192 314.63 28.192 314.656 28.192C317.243 28.1653 319.403 27.8453 321.136 27.232C322.896 26.6187 324.216 25.712 325.096 24.512C326.003 23.2853 326.456 21.7653 326.456 19.952C326.456 18.1387 326.003 16.632 325.096 15.432C324.19 14.232 322.87 13.3253 321.136 12.712C319.403 12.0987 317.27 11.792 314.736 11.792C314.71 11.792 314.63 11.792 314.496 11.792C314.363 11.792 314.27 11.792 314.216 11.792C311.576 11.792 309.35 12.0987 307.536 12.712C305.75 13.2987 304.403 14.2053 303.496 15.432C302.616 16.632 302.176 18.152 302.176 19.992C302.176 21.832 302.643 23.3653 303.576 24.592C304.536 25.792 305.91 26.6987 307.696 27.312C309.483 27.8987 311.656 28.192 314.216 28.192ZM311.896 35.152V4.912H316.696V35.152H311.896Z" fill="#F88600"/>
</svg>