<svg width="146" height="161" viewBox="0 0 175 161" fill="none" xmlns="http://www.w3.org/2000/svg">
<path d="M89.0001 35.7333C59.5114 35.7333 35.6001 46.354 35.6001 59.4667H47.5261C49.1874 55.966 63.5461 47.6 89.0001 47.6C114.454 47.6 128.813 55.966 130.474 59.4667C129.109 62.3147 119.379 68.3667 102.113 70.562C106.859 73.3507 110.835 76.6733 113.683 80.4707C117.48 79.5807 121.04 78.5127 124.244 77.2667C126.558 76.3767 128.629 75.4273 130.533 74.3593V95.0667C129.703 96.8467 125.668 99.8133 118.667 102.305V114.771C120.625 114.172 122.464 113.585 124.244 112.873C126.558 111.983 128.629 111.033 130.533 109.965V130.667C129.703 132.447 125.668 135.413 118.667 137.905V150.425C132.966 146.153 142.4 138.914 142.4 130.667V59.4667C142.4 46.354 118.489 35.7333 89.0001 35.7333Z" fill="white"/>
<path d="M124.6 0.133301C95.1115 0.133301 71.2002 10.754 71.2002 23.8666H83.1262C84.7875 20.366 99.1462 12 124.6 12C150.054 12 164.413 20.366 166.074 23.8666C164.71 26.7146 154.979 32.7666 137.713 34.962C142.46 37.7506 146.435 41.0733 149.283 44.8707C153.08 43.9807 156.64 42.9127 159.844 41.6667C162.158 40.7766 164.235 39.8273 166.134 38.7593V59.4667C165.303 61.2467 161.268 64.2133 154.267 66.7053V79.1653C156.225 78.572 158.064 77.9787 159.844 77.2667C162.158 76.3767 164.229 75.4273 166.134 74.3593V95.0667C165.303 96.8467 161.268 99.8133 154.267 102.305V114.825C168.566 110.553 178 103.314 178 95.0667V23.8666C178 10.754 154.089 0.133301 124.6 0.133301Z" fill="white"/>
<path d="M53.4 71.3333C23.9113 71.3333 0 81.954 0 95.0667V166.267C0 179.379 23.9113 190 53.4 190C82.8887 190 106.8 179.379 106.8 166.267V95.0667C106.8 81.954 82.8887 71.3333 53.4 71.3333ZM53.4 83.2C78.854 83.2 93.2127 91.566 94.874 95.0667C93.2127 98.5673 78.854 106.933 53.4 106.933C27.946 106.933 13.5873 98.5673 11.926 95.0667C13.5873 91.566 27.946 83.2 53.4 83.2ZM94.9334 166.267C93.272 169.767 78.854 178.133 53.4 178.133C27.946 178.133 13.528 169.767 11.8667 166.267V145.559C13.7653 146.627 15.842 147.577 18.156 148.467C27.5307 152.145 39.9314 154.4 53.4 154.4C66.8687 154.4 79.2694 152.145 88.644 148.467C90.958 147.577 93.0347 146.627 94.9334 145.559V166.267ZM94.9334 130.667C93.272 134.167 78.854 142.533 53.4 142.533C27.946 142.533 13.528 134.167 11.8667 130.667V109.959C13.7653 111.027 15.842 111.977 18.156 112.867C27.5307 116.545 39.9314 118.8 53.4 118.8C66.8687 118.8 79.2694 116.545 88.644 112.867C90.958 111.977 93.0347 111.027 94.9334 109.959V130.667Z" fill="white"/>
</svg>
