<svg width="650" height="538" viewBox="0 0 650 538" fill="none" xmlns="http://www.w3.org/2000/svg">
<path fill-rule="evenodd" clip-rule="evenodd" d="M304.735 0.745962C261.865 8.57041 226.392 41.4024 214.816 83.9714C211.017 97.9413 210.747 124.164 214.261 137.946C221.146 164.956 235.655 187.03 256.771 202.622C297.346 232.581 350.784 232.581 391.359 202.622C412.476 187.03 426.985 164.956 433.87 137.946C437.384 124.164 437.114 97.9413 433.314 83.9714C422.8 45.3051 394.917 16.5409 355.769 3.97684C346.716 1.07108 342.248 0.447514 327.87 0.0830246C318.454 -0.157005 308.043 0.141444 304.735 0.745962ZM306.042 39.5863C281.578 45.5273 260.965 65.2173 252.265 90.9564C248.755 101.342 248.967 122.921 252.695 134.825C258.496 153.341 272.802 169.989 290.361 178.656C313.438 190.047 334.693 190.047 357.769 178.656C375.328 169.989 389.635 153.341 395.435 134.825C399.164 122.921 399.375 101.342 395.865 90.9564C387.063 64.91 366.461 45.4181 341.508 39.5266C331.729 37.2177 315.688 37.2444 306.042 39.5863ZM106.574 106.725C76.3602 114.262 51.2505 139.503 44.325 169.301C43.2192 174.059 42.3125 183.175 42.3086 189.559C42.2858 226.528 65.5313 257.956 101.502 269.586C113.386 273.429 133.548 274.27 145.253 271.411C162.284 267.252 181.37 255.307 191.542 242.442C216.993 210.251 216.731 165.834 190.91 134.865C179.684 121.401 162.619 110.711 146.136 106.82C136.673 104.585 115.355 104.534 106.574 106.725ZM501.419 106.88C472.906 113.806 448.629 137.616 440.606 166.521C429.574 206.263 449.188 248.132 487.025 265.608C499.638 271.434 507.956 273.134 523.168 272.991C533.784 272.892 538.54 272.201 546.629 269.586C582.599 257.956 605.845 226.528 605.822 189.559C605.809 167.152 598.654 148.271 584.291 132.734C571.754 119.174 556.026 109.84 539.654 106.242C531.553 104.463 509.88 104.823 501.419 106.88ZM109.608 146.016C97.2736 151.097 90.7895 157.016 84.98 168.496C75.8314 186.577 80.1381 209.065 95.431 223.063C108.213 234.761 126.8 238.198 143.351 231.926C153.928 227.917 165.386 216.422 169.302 205.891C172.811 196.457 173.18 183.135 170.183 174.133C165.869 161.177 151.705 147.528 139.302 144.377C130.165 142.056 117.529 142.753 109.608 146.016ZM507.95 144.438C496.096 147.822 482.094 161.681 477.947 174.133C474.951 183.135 475.32 196.457 478.829 205.891C482.745 216.422 494.203 227.917 504.779 231.926C521.33 238.198 539.918 234.761 552.7 223.063C577.189 200.648 571.136 161.06 541.074 147.028C535.389 144.374 531.766 143.647 523.168 143.436C517.239 143.29 510.391 143.741 507.95 144.438ZM245.439 238.362C220.285 244.941 198.836 260.844 186.356 282.17C184.261 285.75 182.321 287.702 181.263 287.295C174.78 284.803 154.223 283.828 118.377 284.312C81.8831 284.805 77.9061 285.077 69.1634 287.684C52.6151 292.618 40.7069 299.8 27.8972 312.571C15.2345 325.194 8.44094 336.467 3.01952 353.846C0.0697566 363.302 0.0481977 363.829 0.0481977 426.87C0.0481977 496.709 0.0925841 497.186 7.82968 510.197C15.3702 522.88 27.8896 532.384 41.847 536.024C48.5658 537.777 79.9251 537.995 324.065 537.995C624.628 537.995 606.36 538.443 619.469 530.751C632.64 523.023 643.211 509.292 646.16 496.085C647.017 492.243 648.228 488.108 648.852 486.896C650.469 483.747 650.336 367.449 648.716 368.451C647.981 368.906 647.448 367.662 647.448 365.484C647.448 359.63 642.632 345.314 636.91 334.161C629.709 320.125 612.915 303.311 598.624 295.83C579.183 285.654 574.794 284.92 529.753 284.312C493.907 283.828 473.35 284.803 466.867 287.295C465.81 287.702 463.869 285.75 461.774 282.17C449.166 260.624 427.676 244.805 402.172 238.296C392.704 235.879 388.288 235.74 323.545 235.806C259.651 235.871 254.298 236.046 245.439 238.362ZM252.369 275.707C238.125 280.215 224.021 291.494 218.177 303.046C211.078 317.078 211.198 315.217 211.198 411.227V499.895H324.065H436.932V411.227C436.932 333.382 436.682 321.715 434.888 315.659C428.95 295.615 415.153 281.698 395.208 275.637C387.108 273.174 260.172 273.236 252.369 275.707ZM84.02 323.369C62.2037 327.21 42.9947 346.551 38.754 368.947C37.9981 372.935 37.4604 398.595 37.4617 430.536C37.463 491.582 37.4034 491.122 46.207 497.012L50.5162 499.895H111.835H173.153V412.34C173.153 343.691 172.811 324.563 171.568 323.758C169.426 322.37 91.6594 322.025 84.02 323.369ZM480.05 323.216L475.611 324.001L475.285 411.948L474.96 499.895H536.287H597.614L601.924 497.012C610.727 491.122 610.668 491.582 610.669 430.536C610.67 398.595 610.132 372.935 609.377 368.947C605.018 345.931 585.846 327.086 562.972 323.335C554.93 322.016 487.379 321.919 480.05 323.216ZM7.26779e-06 428.14C-0.0012609 460.97 0.163601 474.582 0.363972 458.39C0.564342 442.198 0.564342 415.338 0.363972 398.701C0.163601 382.062 7.26779e-06 395.311 7.26779e-06 428.14Z" fill="#DEF7E5"/>
</svg>
