<svg width="674" height="410" viewBox="0 0 674 410" fill="none" xmlns="http://www.w3.org/2000/svg">
<path d="M457 31H101.5L86 0H457C530.454 0 590 59.5461 590 133V192.5L559 183.5V133C559 76.667 513.333 31 457 31Z" fill="#DEF7E5" fill-opacity="0.35"/>
<path fill-rule="evenodd" clip-rule="evenodd" d="M439.831 82.7117C437.068 83.9662 434.208 87.4532 433.703 90.1821C433.48 91.3935 433.39 100.745 433.505 110.964C433.703 128.486 433.794 129.651 435.123 131.429C437.802 135.016 439.986 136.134 444.307 136.134C448.628 136.134 450.812 135.015 453.49 131.428C454.839 129.62 454.899 128.678 454.899 109.132C454.899 89.5867 454.839 88.6447 453.49 86.8366C452.715 85.7982 451.277 84.3483 450.295 83.6148C448.033 81.9256 442.597 81.4567 439.831 82.7117ZM374.228 104.625C369.661 106.615 367.112 111.816 368.084 117.165C368.479 119.343 370.568 121.747 381.997 133.181C396.485 147.674 397.264 148.187 403.1 147.091C406.464 146.46 410.552 142.371 411.183 139.006C412.264 133.237 411.679 132.327 397.953 118.456C390.937 111.365 384.206 105.135 382.997 104.613C380.264 103.433 376.954 103.437 374.228 104.625ZM505.468 104.641C504.34 105.149 497.677 111.366 490.66 118.457C476.934 132.327 476.348 133.237 477.431 139.006C478.061 142.371 482.149 146.46 485.513 147.091C491.349 148.187 492.128 147.674 506.616 133.181C518.045 121.747 520.134 119.343 520.53 117.165C522.181 108.077 513.627 100.964 505.468 104.641ZM352.36 170.235C347.83 172.243 345.233 177.471 346.202 182.634C346.799 185.824 350.208 189.602 353.312 190.516C354.916 190.989 362.586 191.175 374.726 191.037C392.583 190.835 393.746 190.744 395.526 189.413C399.112 186.733 400.23 184.549 400.23 180.227C400.23 175.904 399.111 173.72 395.526 171.04C393.737 169.703 392.637 169.623 374.042 169.471C358.787 169.347 353.982 169.516 352.36 170.235ZM439.865 170.254C436.082 171.936 433.382 176.026 433.365 180.1C433.36 181.11 448.334 231.924 466.64 293.021C499.121 401.434 499.981 404.166 502.387 406.613C506.19 410.481 512.294 410.976 516.392 407.75C517.404 406.954 526.509 393.889 536.625 378.715C546.743 363.542 555.244 351.127 555.518 351.127C555.791 351.127 569.089 364.18 585.069 380.132C616.53 411.541 615.531 410.74 621.81 409.606C624.046 409.202 627.482 406.032 648.758 384.749C670.033 363.466 673.202 360.029 673.606 357.792C674.74 351.511 675.541 352.51 644.142 321.038C628.195 305.053 615.147 291.75 615.147 291.477C615.147 291.202 627.558 282.698 642.726 272.578C657.894 262.458 670.956 253.349 671.751 252.338C674.976 248.237 674.48 242.132 670.614 238.327C668.168 235.92 665.437 235.06 557.061 202.567C495.986 184.256 445.092 169.289 443.965 169.308C442.837 169.327 440.992 169.753 439.865 170.254ZM460.853 197.395C461.064 197.944 472.99 237.603 487.356 285.527C501.722 333.45 513.574 372.767 513.695 372.897C513.814 373.027 520.981 362.534 529.619 349.58C538.258 336.625 546.152 325.376 547.163 324.581C549.417 322.807 552.81 322.112 556.207 322.729C558.453 323.137 562.505 326.924 589.013 353.39L619.256 383.586L633.425 369.411L647.595 355.237L617.41 324.983C590.953 298.466 587.167 294.413 586.759 292.166C586.143 288.768 586.837 285.374 588.61 283.119C589.405 282.108 600.65 274.211 613.601 265.569C626.551 256.927 637.04 249.758 636.91 249.639C636.78 249.519 597.477 237.662 549.57 223.291C501.663 208.92 462.017 196.99 461.469 196.779C460.795 196.521 460.595 196.721 460.853 197.395ZM396.129 214.017C395.002 214.525 388.338 220.742 381.322 227.833C367.596 241.704 367.01 242.613 368.092 248.382C368.723 251.747 372.811 255.836 376.175 256.467C382.011 257.563 382.789 257.05 397.277 242.557C408.707 231.124 410.796 228.719 411.191 226.541C412.842 217.453 404.289 210.34 396.129 214.017Z" fill="#DEF7E5"/>
<rect x="15.5" y="58.5" width="512" height="214" rx="70.5" stroke="#DEF7E5" stroke-width="31"/>
</svg>
