<svg width="1024" height="153" viewBox="0 0 1024 153" fill="none" xmlns="http://www.w3.org/2000/svg">
<path d="M153.496 51.3984L99.9323 80.8828V72.1172L153.496 101.602L137.907 128.695L86.3415 98.8125L91.538 96.0234L91.9377 153H61.5583L61.958 96.0234L67.1545 98.8125L15.9892 128.695L0 101.602L53.9634 72.1172V80.8828L0 51.3984L15.9892 23.9062L67.1545 54.1875L61.958 57.375L61.5583 0H91.9377L91.538 57.375L86.3415 54.1875L137.907 23.9062L153.496 51.3984Z" fill="#DEF7E5"/>
<path d="M327.597 51.3984L274.033 80.8828V72.1172L327.597 101.602L312.007 128.695L260.442 98.8125L265.639 96.0234L266.039 153H235.659L236.059 96.0234L241.255 98.8125L190.09 128.695L174.101 101.602L228.064 72.1172V80.8828L174.101 51.3984L190.09 23.9062L241.255 54.1875L236.059 57.375L235.659 0H266.039L265.639 57.375L260.442 54.1875L312.007 23.9062L327.597 51.3984Z" fill="#DEF7E5"/>
<path d="M501.698 51.3984L448.134 80.8828V72.1172L501.698 101.602L486.108 128.695L434.543 98.8125L439.74 96.0234L440.139 153H409.76L410.16 96.0234L415.356 98.8125L364.191 128.695L348.202 101.602L402.165 72.1172V80.8828L348.202 51.3984L364.191 23.9062L415.356 54.1875L410.16 57.375L409.76 0H440.139L439.74 57.375L434.543 54.1875L486.108 23.9062L501.698 51.3984Z" fill="#DEF7E5"/>
<path d="M675.798 51.3984L622.235 80.8828V72.1172L675.798 101.602L660.209 128.695L608.644 98.8125L613.84 96.0234L614.24 153H583.861L584.26 96.0234L589.457 98.8125L538.292 128.695L522.302 101.602L576.266 72.1172V80.8828L522.302 51.3984L538.292 23.9062L589.457 54.1875L584.26 57.375L583.861 0H614.24L613.84 57.375L608.644 54.1875L660.209 23.9062L675.798 51.3984Z" fill="#DEF7E5"/>
<path d="M849.899 51.3984L796.336 80.8828V72.1172L849.899 101.602L834.31 128.695L782.745 98.8125L787.941 96.0234L788.341 153H757.961L758.361 96.0234L763.558 98.8125L712.392 128.695L696.403 101.602L750.367 72.1172V80.8828L696.403 51.3984L712.392 23.9062L763.558 54.1875L758.361 57.375L757.961 0H788.341L787.941 57.375L782.745 54.1875L834.31 23.9062L849.899 51.3984Z" fill="#DEF7E5"/>
<path d="M1024 51.3984L970.436 80.8828V72.1172L1024 101.602L1008.41 128.695L956.846 98.8125L962.042 96.0234L962.442 153H932.062L932.462 96.0234L937.659 98.8125L886.493 128.695L870.504 101.602L924.467 72.1172V80.8828L870.504 51.3984L886.493 23.9062L937.659 54.1875L932.462 57.375L932.062 0H962.442L962.042 57.375L956.846 54.1875L1008.41 23.9062L1024 51.3984Z" fill="#DEF7E5"/>
</svg>
