<svg width="566" height="662" viewBox="0 0 566 662" fill="none" xmlns="http://www.w3.org/2000/svg">
<path fill-rule="evenodd" clip-rule="evenodd" d="M185.323 42.8283L22.6848 66.4437L17.5044 70.7562C14.655 73.1287 10.9372 77.5447 9.24055 80.5693C3.46619 90.8679 3.53686 93.1009 11.4104 148.75C15.5784 178.208 19.1556 200.15 20.0575 201.784C22.5012 206.217 29.8428 206.376 33.4705 202.076C34.9804 200.287 34.9419 197.82 33.2171 185.63L31.1881 171.29L230.992 143.02L479.933 107.363L509.059 313.265C528.326 449.473 537.988 520.667 537.604 523.597C537.251 526.287 535.523 529.662 533.2 532.198C531.097 534.492 528.572 537.293 527.592 538.421C525.22 541.147 526.211 547.771 529.305 549.864C534.927 553.669 545.593 547.32 550.696 537.128C556.149 526.236 557.82 540.608 520.187 274.62C481.965 4.47928 485.17 23.3073 475.852 14.1144C465.332 3.7348 406.515 10.1771 369.414 15.9016C357.615 17.7226 274.775 29.8391 185.323 42.8283ZM409.26 29.8208C411.632 30.6238 464.033 25.5728 465.649 27.625C468.354 31.0612 468.944 33.6721 473.099 60.6368L477.613 89.9172L228.527 125.595L28.5776 153.885L24.7911 124.502C20.585 91.8761 20.7355 89.6403 27.498 84.0813C30.8308 81.3406 34.4745 80.7801 217.921 54.8226C393.67 29.9541 405.206 28.4475 409.26 29.8208ZM56.8523 89.8564C47.9483 95.7728 43.8685 104.841 45.3758 115.369C47.5355 130.466 60.3965 139.904 75.8336 137.72C82.6293 136.759 91.5453 130.048 94.9025 123.367C97.4432 118.311 97.5654 117.014 96.3258 108.253C95.0943 99.5484 94.5951 98.2647 90.8715 94.2404C82.0379 84.6922 67.4524 82.8124 56.8523 89.8564ZM126.551 79.9949C117.647 85.9114 113.567 94.9797 115.075 105.508C117.235 120.605 130.095 130.043 145.533 127.859C152.328 126.897 161.244 120.186 164.602 113.506C167.142 108.449 167.264 107.152 166.025 98.3912C164.793 89.687 164.294 88.4033 160.571 84.3789C151.737 74.8307 137.151 72.951 126.551 79.9949ZM196.25 70.1335C187.346 76.0499 183.267 85.1182 184.774 95.6461C186.934 110.743 199.794 120.181 215.232 117.997C222.027 117.036 230.943 110.325 234.301 103.644C236.84 98.5893 236.963 97.2886 235.726 88.5449C234.527 80.0707 233.932 78.4805 230.526 74.6364C222.061 65.0846 206.855 63.0866 196.25 70.1335ZM73.9837 102.628C77.8649 104.04 79.9913 106.431 80.539 110.001C81.2523 114.64 80.4249 116.832 77.0571 119.225C72.7042 122.318 69.6133 122.431 65.8897 119.629C57.2297 113.117 63.9603 98.9828 73.9837 102.628ZM143.683 92.7663C147.564 94.1782 149.69 96.5694 150.238 100.139C150.951 104.779 150.124 106.971 146.756 109.363C142.403 112.457 139.312 112.569 135.589 109.768C126.929 103.256 133.659 89.1214 143.683 92.7663ZM213.382 82.9048C217.263 84.3167 219.389 86.708 219.937 90.2776C220.655 94.9535 219.819 97.1123 216.324 99.595C205.724 107.128 195.035 91.796 205.463 84.0158C208.244 81.9397 210.036 81.6885 213.382 82.9048ZM148.551 191.503C145.266 194.933 145.602 199.813 149.366 203.315L151.974 205.743L238.142 193.552L399.083 170.117L400.915 167.061C403.559 162.652 402.528 157.871 398.421 155.486C395.05 153.529 319.473 164.863 235.758 176.708C152.044 188.552 151.247 188.688 148.551 191.503ZM27.3348 225.164C26.0192 225.923 24.5261 227.681 24.0186 229.069C23.3658 230.854 30.6817 284.562 49.0085 412.518L79.097 621.218L82.3621 626.273C86.8303 633.19 95.2862 639.063 103.336 640.842C109.9 642.292 112.037 642.033 226.191 625.881L342.365 609.444L344.812 606.189C347.8 602.217 347.522 599.348 343.808 595.79L340.982 593.085L224.349 609.274C108.602 625.34 107.689 625.448 104.17 623.521C102.219 622.454 99.3413 620.29 97.7743 618.712C94.9292 615.846 94.8902 615.596 64.9058 407.632L39.0612 227.194L35.6801 225.231C31.9946 223.092 30.9387 223.083 27.3348 225.164ZM113.332 228.866C108.923 231.589 104.909 238.195 104.689 243.094C104.592 245.27 111.563 295.633 112.948 303.898C115.339 318.146 115.662 319.118 119.179 322.583C126.829 330.122 117.518 330.886 254.824 311.459C392.137 292.031 447.068 284.245 452.322 274.875C454.841 270.384 454.84 270.111 452.282 252.028C449.448 232.002 442.908 188.814 434.531 184.229C431.007 182.3 366.133 192.03 241.774 209.368C139.53 223.623 116.047 227.188 113.332 228.866ZM436.035 254.444L437.925 267.803L252.441 294.615L131.048 311.791L129 299.72C127.874 293.08 121.202 245.099 121.407 244.209C121.713 242.878 143.349 239.591 242.957 225.746L428.228 199.266L436.035 254.444ZM128.211 346.258C120.798 353 127.918 406.915 130.781 427.147C133.238 444.511 133.513 445.521 136.7 448.875C138.539 450.808 142.323 453.061 145.11 453.88C149.949 455.301 155.696 454.587 272.732 438.028C389.767 421.469 459.579 410.924 463.833 408.216C466.283 406.656 469.294 403.442 470.525 401.075C472.656 396.968 472.641 395.922 470.184 378.558C467.321 358.325 459.205 304.552 450.213 300.131L446.002 298.06L256.796 325.399L131.682 343.101L128.211 346.258ZM454.187 380.342C455.756 389.673 455.957 393.282 454.954 394.139C453.4 395.462 153.161 438.788 150.202 438.108C148.602 437.741 147.958 435.493 146.502 425.203C145.532 418.35 137.644 360.068 138.012 359.578C138.38 359.089 193.107 351.123 259.626 341.878L444.664 315.431L454.187 380.342ZM241.76 459.91C226.146 467.413 219.598 484.802 226.565 500.26C229.945 507.759 237.005 514.123 244.766 516.67C250.442 518.532 327.203 507.776 353.471 504.06C379.738 500.343 380.963 500.066 385.899 496.701C403.187 484.922 403.597 458.983 386.686 447.061C377.386 440.505 376.263 440.428 346.798 444.34C332.086 446.293 243.289 459.175 241.76 459.91ZM374.519 459.357C382.662 463.308 385.018 474.571 379.015 480.841C376.497 483.47 374.758 483.867 351.087 487.216C327.416 490.565 250.128 501.349 246.98 499.522C239.473 495.164 238.612 483.689 245.339 477.635C248.759 474.556 325.387 463.599 347.307 460.498C369.227 457.396 370.379 457.348 374.519 459.357ZM377.175 464.276C371.086 469.359 371.089 469.475 379.684 530.152C387.188 583.139 387.682 585.88 390.283 588.825C397.357 596.835 404.286 595.712 419.14 584.151C429.353 576.199 430.585 575.532 432.126 577.115C433.062 578.076 438.523 584.87 444.263 592.213C453.68 604.26 455.214 605.708 460.011 607.066C466.739 608.971 469.029 608.08 481.221 598.816C492.811 590.009 496.244 586.023 496.953 580.548C497.675 574.974 495.634 571.257 483.108 555.349L472.838 542.306L484.088 533.289C490.275 528.331 496.174 522.732 497.198 520.846C499.661 516.305 498.576 508.655 494.948 504.981C493.326 503.338 471.208 493.703 440.793 481.389C385.521 459.01 383.98 458.595 377.175 464.276ZM434.976 496.971C459.351 506.719 479.345 514.954 479.407 515.272C479.469 515.589 474.889 519.436 469.227 523.821C451.592 537.482 451.509 541.665 468.433 563.655L479.912 578.57L472.896 584.086C469.038 587.12 465.45 589.765 464.925 589.965C464.399 590.164 458.939 583.894 452.79 576.032C440.097 559.797 436.86 557.426 428.931 558.562C424.469 559.202 421.818 560.687 414.087 566.883C408.911 571.032 404.201 574.493 403.623 574.575C403.011 574.662 399.749 554.78 395.832 527.096C392.126 500.901 389.445 479.419 389.876 479.358C390.307 479.297 410.601 487.223 434.976 496.971Z" fill="#DEF7E5"/>
<path fill-rule="evenodd" clip-rule="evenodd" d="M254.999 351.362C253.386 353.508 253.598 353.87 258.796 357.856L264.301 362.079L260.362 368.075C258.195 371.373 255.814 376.02 255.072 378.4C253.754 382.621 253.82 382.858 257.735 388.129C268.401 402.485 288.671 408.358 305.946 402.098L313.663 399.303L320.562 404.365C327.391 409.375 327.482 409.4 329.565 406.899C331.666 404.378 331.59 404.312 294.819 376.643C274.551 361.391 257.684 348.953 257.338 349.002C256.992 349.051 255.939 350.113 254.999 351.362ZM285.4 350.293C284.797 350.636 282.325 351.544 279.905 352.312L275.506 353.705L280.006 357.216C284.076 360.39 284.941 360.597 289.056 359.382C292.5 358.364 294.95 358.502 299.138 359.946C307.161 362.714 310.154 366.288 311.467 374.663C312.495 381.224 312.858 381.825 318.351 386.038L324.15 390.484L326.911 386.974C328.428 385.043 330.729 380.486 332.024 376.848L334.376 370.234L328.808 364.181C322.315 357.122 312.662 351.395 304.91 350.002C299.31 348.996 287.368 349.175 285.4 350.293ZM298.407 371.036C304.962 376.064 305.048 376.101 304.721 373.789C304.333 371.051 297.636 365.813 294.999 366.186C292.886 366.485 293.369 367.173 298.407 371.036ZM275.808 375.483C275.027 382.87 279.57 390.497 286.542 393.503C290.507 395.212 301.572 394.662 303.06 392.683C304.469 390.81 297.913 387.102 294.138 387.637C289.545 388.286 283.585 383.525 282.896 378.655C282.492 375.795 278.919 372.016 276.89 372.303C276.475 372.362 275.987 373.792 275.808 375.483Z" fill="#DEF7E5"/>
</svg>
