<svg width="903" height="912" viewBox="0 0 903 912" fill="none" xmlns="http://www.w3.org/2000/svg">
<path fill-rule="evenodd" clip-rule="evenodd" d="M804.168 166.579C799.824 170.127 770.773 221.588 770.847 225.601C770.921 229.599 774.469 234.52 778.277 235.907C779.799 236.461 782.803 236.443 784.954 235.866C788.554 234.902 790.218 232.476 805.856 205.391C824.061 173.859 824.29 173.172 818.693 167.032C817.299 165.502 814.49 164.17 812.317 164.01C807.612 163.662 807.814 163.599 804.168 166.579ZM729.579 201.914C723.324 212.817 718.856 221.975 718.901 223.803C718.99 227.493 723.186 232.592 726.834 233.444C728.185 233.761 731.188 233.511 733.507 232.889C737.429 231.838 738.486 230.441 748.593 212.934C758.551 195.687 759.371 193.767 758.375 190.051C757.642 187.315 756.045 185.126 753.475 183.331C750.338 181.141 748.835 180.89 744.998 181.919C740.499 183.124 739.953 183.833 729.579 201.914ZM652.697 208.979C651.603 209.812 650.122 211.657 649.405 213.079C646.859 218.131 632.522 301.248 633.54 305.05C634.335 308.015 636.2 309.725 643.372 314.061L652.222 319.414L643.72 334.199L635.217 348.984L473.28 392.695L188.113 469.423L183.461 473.326C176.537 479.134 170.886 489.043 169.319 498.125L167.968 505.951L214.962 681.335C269.051 883.197 262.691 863.921 278.143 872.842C292.911 881.368 411.17 849.064 496.97 826.074L570.51 806.369L572.793 801.847C575.658 796.169 574.605 791.717 569.564 788.197L565.793 785.565L493.444 804.612C412.984 825.791 293.208 858.234 286.288 851.637C283.219 848.713 282.316 845.539 245.954 709.848L208.759 571.05L465.295 502.311C538.614 482.665 598.944 466.79 599.363 467.031C599.781 467.272 600.291 471.042 600.497 475.407C601.086 487.85 605.524 503.677 609.934 509.052C614.498 514.617 622.139 518.442 628.751 518.474C639.872 518.525 664.11 508.635 681.485 496.957C695.655 487.432 715.966 467.501 728.538 450.783C731.561 446.762 734.298 443.402 734.619 443.316C734.938 443.23 751.194 502.856 770.741 575.816C805.464 705.416 806.255 708.568 805.059 712.633C802.374 721.775 805.549 720.575 725.651 742.649C686.105 753.575 653.187 763.134 652.499 763.893C650.569 766.024 650.05 772.728 651.572 775.874C652.325 777.431 654.502 779.541 656.408 780.564L659.875 782.424L733.234 762.767C818.832 739.831 814.198 741.687 822.705 726.927C831.586 711.514 834.704 727.554 790.501 561.196L752.03 416.406L760.579 401.658L769.128 386.909L778.188 391.897C785.418 395.879 787.967 396.694 790.803 395.935C795.117 394.779 860.107 340.245 862.979 335.37C865.309 331.416 864.158 325.199 860.489 321.922C858.52 320.164 844.665 317.877 799.093 311.786L740.239 303.921L707.695 262.155C662.583 204.26 665.91 208.139 660.764 207.445C655.865 206.785 655.488 206.857 652.697 208.979ZM693.04 279.594C707.688 298.357 719.818 314.255 719.997 314.925C720.177 315.594 718.675 318.937 716.66 322.353L712.997 328.563L684.573 312.342L656.15 296.121L658.902 281.016C660.416 272.708 662.485 261.165 663.5 255.364C664.514 249.565 665.584 244.968 665.876 245.149C666.171 245.331 678.394 260.831 693.04 279.594ZM808.286 252.119C799.112 268.01 798.7 269.051 799.865 273.399C801.317 278.818 804.76 281.652 809.972 281.718C815.749 281.793 818.64 278.615 828.166 261.725C836.105 247.649 836.791 245.878 835.776 242.092C834.214 236.26 828.02 232.708 822.157 234.279C818.253 235.325 817.201 236.678 808.286 252.119ZM711.1 353.231L750.031 375.72L739.431 394.203C726.77 416.281 715.251 432.87 702.01 448.099L692.241 459.333L660.165 440.872L628.089 422.41L630.408 414.715C635.439 398.015 644.716 377.464 657.439 354.828C664.769 341.788 671.081 331.033 671.468 330.929C671.853 330.826 689.688 340.861 711.1 353.231ZM784.457 332.269C806.459 335.217 824.833 337.844 825.286 338.106C826.46 338.783 827.203 338.092 806.372 355.73L787.349 371.836L759.775 355.783L732.2 339.73L735.796 333.359C738.475 328.615 740.039 326.978 741.922 326.948C743.313 326.925 762.452 329.319 784.457 332.269ZM620.426 376.754C620.566 377.277 619.072 381.661 617.105 386.497C611.408 400.509 606.614 416.191 603.746 430.192L601.086 443.177L463.694 479.991L203.071 549.825L196.92 526.869C190.577 503.196 190.231 499.799 193.666 494.95C197.856 489.033 319.896 456.37 473.008 415.289C553.948 393.572 620.286 376.232 620.426 376.754ZM225.943 502.636C220.453 506.492 219.379 514.306 223.688 519.034C231.235 527.315 245.109 520.543 242.274 509.963C240.88 504.762 238.638 502.443 234.026 501.433C230.169 500.589 228.506 500.837 225.943 502.636ZM261.849 493.652C253.591 501.163 260.668 515.235 271.273 512.393C273.396 511.825 276.002 510.545 277.064 509.549C279.576 507.193 280.428 500.627 278.688 497.032C275.816 491.099 266.674 489.263 261.849 493.652ZM649.206 460.083C662.68 467.873 672.918 474.516 672.68 475.312C671.542 479.096 644.374 493.039 633.913 495.206L627.952 496.442L625.263 485.788C621.882 472.393 621.332 447.331 624.402 446.508C624.901 446.374 636.063 452.483 649.206 460.083ZM469.899 529.908C466.82 533.012 466.531 538.564 468.975 547.687L471.317 556.424L464.33 559.793C428.758 576.944 406.428 617.363 410.402 657.403L410.837 661.776L400.783 664.47C391.644 666.919 390.549 667.476 388.755 670.583C386.175 675.052 386.327 679.494 389.188 683.222C392.558 687.616 397.214 688.175 407.488 685.422L416.335 683.052L421.511 692.74C438.869 725.229 473.655 745.375 510.59 744.328L521.582 744.017L523.921 752.745C526.557 762.583 529.357 766.486 534.379 767.326C539.433 768.171 542.725 766.81 545.606 762.686C548.136 759.06 548.145 758.535 545.83 748.66L543.424 738.4L553.155 733.058C571.599 722.931 587.011 706.675 595.453 688.442C601.187 676.057 605.164 657.228 604.618 645.054C604.387 639.913 604.205 635.032 604.212 634.207C604.223 633.157 607.068 631.945 613.672 630.175C622.203 627.889 623.374 627.276 625.778 623.832C629.379 618.674 627.729 611.535 622.199 608.342C618.852 606.409 617.582 606.434 608.272 608.617L598.028 611.02L594.727 604.08C578.708 570.399 540.619 547.982 502.651 549.888L493.042 550.371L490.006 540.319C487.248 531.186 486.633 530.072 483.287 528.141C479.355 525.871 473.085 526.698 469.899 529.908ZM479.818 587.494C482.938 597.445 485.342 600.197 491.47 600.833C494.932 601.192 500.579 597.87 502.098 594.58C502.682 593.315 502.259 588.298 501.09 582.639L499.073 572.88L503.062 572.225C513.901 570.441 535.029 575.632 546.512 582.899C555.992 588.899 564.685 597.411 570.262 606.155C573.089 610.587 575.596 614.941 575.835 615.831C576.179 617.115 574.338 617.966 566.925 619.952C558.32 622.258 557.413 622.75 555.426 626.19C552.203 631.773 554.32 638.768 560.042 641.446C563.797 643.204 565.212 643.16 573.105 641.045C583.107 638.365 582.837 638.162 582.57 648.169C582.012 668.958 572.457 689.809 557.232 703.456C552.092 708.065 538.639 716.277 537.402 715.562C536.949 715.301 535.513 711.111 534.211 706.25C531.993 697.974 531.581 697.263 527.703 695.024C523.331 692.499 519.519 692.823 515.605 696.048C511.811 699.176 511.259 703.119 513.245 712.902L515.116 722.121L508.561 722.232C504.956 722.293 497.173 721.394 491.267 720.233C472.434 716.533 453.642 703.326 443.465 686.639C437.811 677.369 437.705 677.63 448.516 674.253C457.311 671.505 458.137 671.008 459.858 667.431C462.513 661.916 460.794 656.394 455.466 653.317C451.574 651.07 450.786 651.072 442.303 653.345C433.584 655.681 433.257 655.674 432.579 653.145C431.587 649.442 432.535 638.047 434.61 628.736C436.798 618.914 447.515 600.043 454.775 593.227C459.591 588.706 472.699 579.527 475.642 578.614C476.471 578.357 477.921 581.441 479.818 587.494ZM603.854 778.151C601.971 780.912 601.719 782.619 602.674 786.181C604.874 794.394 614.151 797.433 620.198 791.921C623.804 788.636 624.6 785.548 623.195 780.303C620.867 771.618 609.197 770.319 603.854 778.151Z" fill="#DEF7E5"/>
<path d="M632.111 431.063L685.571 402.186L665.424 328.887" stroke="#DEF7E5" stroke-width="22" stroke-linecap="round" stroke-linejoin="round"/>
</svg>
