<svg width="574" height="612" viewBox="0 0 574 612" fill="none" xmlns="http://www.w3.org/2000/svg">
<path d="M287 114.8C191.908 114.8 114.8 149.049 114.8 191.334H153.258C158.616 180.045 204.918 153.067 287 153.067C369.082 153.067 415.385 180.045 420.742 191.334C416.342 200.518 384.963 220.034 329.285 227.113C344.592 236.106 357.411 246.82 366.595 259.066C378.84 256.196 390.32 252.752 400.652 248.734C408.114 245.864 414.792 242.802 420.934 239.358V306.134C418.255 311.874 405.244 321.44 382.667 329.476V369.675C388.981 367.743 394.912 365.849 400.652 363.553C408.114 360.683 414.792 357.621 420.934 354.177V420.934C418.255 426.674 405.244 436.24 382.667 444.276V484.648C428.778 470.872 459.2 447.529 459.2 420.934V191.334C459.2 149.049 382.093 114.8 287 114.8Z" fill="#DEF7E5"/>
<path d="M401.8 0C306.707 0 229.6 34.2487 229.6 76.5333H268.058C273.415 65.2447 319.718 38.2667 401.8 38.2667C483.882 38.2667 530.184 65.2447 535.542 76.5333C531.141 85.7173 499.762 105.233 444.084 112.313C459.391 121.305 472.21 132.02 481.394 144.265C493.64 141.395 505.12 137.951 515.452 133.933C522.914 131.063 529.61 128.002 535.733 124.558V191.333C533.054 197.073 520.044 206.64 497.466 214.676V254.856C503.78 252.943 509.712 251.029 515.452 248.733C522.914 245.863 529.591 242.802 535.733 239.358V306.133C533.054 311.873 520.044 321.44 497.466 329.476V369.847C543.578 356.071 574 332.729 574 306.133V76.5333C574 34.2487 496.892 0 401.8 0Z" fill="#DEF7E5"/>
<path d="M172.2 229.6C77.1074 229.6 0 263.848 0 306.133V535.733C0 578.018 77.1074 612.266 172.2 612.266C267.293 612.266 344.4 578.018 344.4 535.733V306.133C344.4 263.848 267.293 229.6 172.2 229.6ZM172.2 267.866C254.282 267.866 300.585 294.844 305.942 306.133C300.585 317.422 254.282 344.4 172.2 344.4C90.118 344.4 43.8153 317.422 38.458 306.133C43.8153 294.844 90.118 267.866 172.2 267.866ZM306.133 535.733C300.776 547.022 254.282 574 172.2 574C90.118 574 43.624 547.022 38.2667 535.733V468.958C44.3893 472.402 51.086 475.463 58.548 478.333C88.7787 490.196 128.767 497.466 172.2 497.466C215.633 497.466 255.621 490.196 285.852 478.333C293.314 475.463 300.011 472.402 306.133 468.958V535.733ZM306.133 420.933C300.776 432.222 254.282 459.2 172.2 459.2C90.118 459.2 43.624 432.222 38.2667 420.933V354.158C44.3893 357.602 51.086 360.663 58.548 363.533C88.7787 375.396 128.767 382.666 172.2 382.666C215.633 382.666 255.621 375.396 285.852 363.533C293.314 360.663 300.011 357.602 306.133 354.158V420.933Z" fill="#DEF7E5"/>
</svg>
